<?xml version="1.0" encoding="UTF-8" standalone="no"?>
<!-- Generator: Adobe Illustrator 21.1.0, SVG Export Plug-In . SVG Version: 6.00 Build 0)  -->

<svg
   xmlns:dc="http://purl.org/dc/elements/1.1/"
   xmlns:cc="http://creativecommons.org/ns#"
   xmlns:rdf="http://www.w3.org/1999/02/22-rdf-syntax-ns#"
   xmlns:svg="http://www.w3.org/2000/svg"
   xmlns="http://www.w3.org/2000/svg"
   xmlns:sodipodi="http://sodipodi.sourceforge.net/DTD/sodipodi-0.dtd"
   xmlns:inkscape="http://www.inkscape.org/namespaces/inkscape"
   version="1.1"
   id="Layer_1"
   x="0px"
   y="0px"
   viewBox="0 0 16.556185 16.318725"
   xml:space="preserve"
   sodipodi:docname="icon.svg"
   width="64"
   height="64"
   inkscape:version="0.92.4 (5da689c313, 2019-01-14)"><metadata
   id="metadata258"><rdf:RDF><cc:Work
       rdf:about=""><dc:format>image/svg+xml</dc:format><dc:type
         rdf:resource="http://purl.org/dc/dcmitype/StillImage" /><dc:title>Asset 2</dc:title></cc:Work></rdf:RDF></metadata><defs
   id="defs256" /><sodipodi:namedview
   pagecolor="#ffffff"
   bordercolor="#666666"
   borderopacity="1"
   objecttolerance="10"
   gridtolerance="10"
   guidetolerance="10"
   inkscape:pageopacity="0"
   inkscape:pageshadow="2"
   inkscape:window-width="1920"
   inkscape:window-height="1018"
   id="namedview254"
   showgrid="false"
   inkscape:zoom="5.3187952"
   inkscape:cx="31.512154"
   inkscape:cy="42.632598"
   inkscape:window-x="0"
   inkscape:window-y="0"
   inkscape:window-maximized="1"
   inkscape:current-layer="Layer_1" />
<style
   type="text/css"
   id="style2">
	.st0{fill:url(#SVGID_1_);}
	.st1{fill:#C6C6C5;}
	.st2{fill:#9C9B9B;}
	.st3{opacity:0.25;}
	.st4{fill:#FFCB05;stroke:#231F20;stroke-width:2;}
	.st5{fill:#2D3033;}
	.st6{opacity:0.5;}
	.st7{fill:url(#SVGID_2_);}
	.st8{fill:url(#SVGID_3_);}
	.st9{fill:#D9D9D9;}
	.st10{fill:#B1B1B1;}
	.st11{fill:url(#SVGID_4_);}
	.st12{opacity:0.5;fill:url(#SVGID_5_);}
	.st13{opacity:0.5;fill:url(#SVGID_6_);}
	.st14{opacity:0.5;fill:url(#SVGID_7_);}
	.st15{opacity:0.5;fill:url(#SVGID_8_);}
	.st16{opacity:0.5;fill:url(#SVGID_9_);}
	.st17{opacity:0.5;fill:url(#SVGID_10_);}
	.st18{opacity:0.5;fill:url(#SVGID_11_);}
	.st19{opacity:0.5;fill:url(#SVGID_12_);}
	.st20{opacity:0.5;fill:url(#SVGID_13_);}
	.st21{opacity:0.5;fill:url(#SVGID_14_);}
	.st22{opacity:0.2;enable-background:new    ;}
	.st23{opacity:0.1;fill:#FFFFFF;enable-background:new    ;}
	.st24{fill:url(#SVGID_15_);}
</style>
<title
   id="title4">Asset 2</title>
<linearGradient
   id="SVGID_1_"
   gradientUnits="userSpaceOnUse"
   x1="123.7"
   y1="246.72"
   x2="123.7"
   y2="52.799999"
   gradientTransform="matrix(0.06482945,0,0,0.06387225,0.22812102,-0.12170581)">
	<stop
   offset="0"
   style="stop-color:#1A1A1A"
   id="stop6" />
	<stop
   offset="1"
   style="stop-color:#595959"
   id="stop8" />
</linearGradient>
<path
   class="st0"
   d="m 3.7094625,15.705838 c -0.2139354,0 -0.3824938,-0.134131 -0.3954596,-0.312974 L 3.0611688,14.109031 3.0482079,14.102634 2.5490232,11.732974 2.574955,11.675491 2.1730129,9.6124172 H 0.27350997 L 1.3820936,7.4726979 0.22812988,8.034773 2.5684725,5.1477477 3.0287605,3.9597237 4.5911508,2.6950539 4.7272929,2.5864712 5.025509,2.6567281 5.1162652,2.6758988 C 5.1746141,2.612029 5.2394425,2.5609273 5.3107553,2.5162174 v -0.6004 C 5.30426,1.6283924 5.4728272,1.3665162 5.7386281,1.2451587 V 0.79166613 c -0.0065,-0.3576848 0.2722833,-0.65149682 0.6288463,-0.6578838 0.012961,0 0.019446,0 0.032417,0 h 3.7341776 c 0.356562,-0.006397 0.654776,0.2682631 0.66126,0.61955994 0,0.012774 0,0.0191609 0,0.0319349 V 1.2387697 c 0.2658,0.1213576 0.434358,0.3832337 0.427875,0.6706597 v 0.6003981 c 0.07131,0.044709 0.136142,0.095805 0.188005,0.1532934 l 0.103728,-0.025548 0.291731,-0.070257 0.110212,0.089418 1.601286,1.3029946 0.460289,1.188024 2.288479,2.8231526 -1.16693,-0.5237523 0.920579,2.1716571 H 14.438744 L 13.45982,15.367312 c -0.01945,0.198004 -0.194488,0.344909 -0.395459,0.344909 l -9.3548908,-0.0064 z"
   id="path11"
   style="fill:url(#SVGID_1_);stroke-width:0.06434906"
   inkscape:connector-curvature="0" />
<polygon
   id="_Yol_"
   class="st1"
   points="124.3,107 178,107.4 178,41.7 124.3,54.6 "
   transform="matrix(0.06482945,0,0,0.06387225,0.22812201,0.13378331)"
   style="fill:#c6c6c5" />
<polygon
   id="_Yol_2"
   class="st2"
   points="124.3,107 70.2,107.4 70.2,41.7 124.3,54.6 "
   transform="matrix(0.06482945,0,0,0.06387225,0.22812201,0.13378331)"
   style="fill:#9c9b9b" />
<g
   class="st3"
   id="g29"
   transform="matrix(0.06482945,0,0,0.06387225,0.22812201,0.13378331)"
   style="opacity:0.25">
	<path
   class="st4"
   d="m 160.2,10.2 v 83.1 c 0.1,3.9 -3,7.1 -6.9,7.1 -0.1,0 -0.2,0 -0.3,0 H 95.4 c -3.9,-0.1 -7.1,-3.2 -7.1,-7.1 v 0 -83.1 c -0.1,-3.9 3,-7.1 6.9,-7.1 0.1,0 0.2,0 0.3,0 h 57.6 c 3.9,-0.1 7.1,3 7.1,6.9 0,0.1 0,0.2 0,0.2 z"
   id="path15"
   inkscape:connector-curvature="0"
   style="fill:#ffcb05;stroke:#231f20;stroke-width:2" />
	<rect
   x="100.5"
   y="83.199997"
   class="st5"
   width="47.900002"
   height="2"
   id="rect17"
   style="fill:#2d3033" />
	<rect
   x="100.5"
   y="69.900002"
   class="st5"
   width="47.900002"
   height="2"
   id="rect19"
   style="fill:#2d3033" />
	<rect
   x="100.5"
   y="57.200001"
   class="st5"
   width="47.900002"
   height="2"
   id="rect21"
   style="fill:#2d3033" />
	<rect
   x="100.5"
   y="44.400002"
   class="st5"
   width="47.900002"
   height="2"
   id="rect23"
   style="fill:#2d3033" />
	<rect
   x="100.5"
   y="31.1"
   class="st5"
   width="47.900002"
   height="2"
   id="rect25"
   style="fill:#2d3033" />
	<rect
   x="100.5"
   y="18.4"
   class="st5"
   width="47.900002"
   height="2"
   id="rect27"
   style="fill:#2d3033" />
</g>
<g
   class="st6"
   id="g45"
   transform="matrix(0.06482945,0,0,0.06387225,0.22812201,0.13378331)"
   style="opacity:0.5">
	<path
   class="st4"
   d="m 166.8,27.9 v 98.5 c 0.1,4.6 -3.5,8.3 -8.1,8.5 -0.1,0 -0.3,0 -0.4,0 H 90.1 c -4.6,-0.1 -8.4,-3.8 -8.5,-8.5 v 0 -98.5 c -0.1,-4.6 3.5,-8.3 8.1,-8.5 0.1,0 0.3,0 0.4,0 h 68.3 c 4.6,-0.1 8.3,3.5 8.5,8.1 -0.1,0.1 -0.1,0.3 -0.1,0.4 z"
   id="path31"
   inkscape:connector-curvature="0"
   style="fill:#ffcb05;stroke:#231f20;stroke-width:2" />
	<rect
   x="96.099998"
   y="114.3"
   class="st5"
   width="56.799999"
   height="2.4000001"
   id="rect33"
   style="fill:#2d3033" />
	<rect
   x="96.099998"
   y="98.599998"
   class="st5"
   width="56.799999"
   height="2.4000001"
   id="rect35"
   style="fill:#2d3033" />
	<rect
   x="96.099998"
   y="83.5"
   class="st5"
   width="56.799999"
   height="2.4000001"
   id="rect37"
   style="fill:#2d3033" />
	<rect
   x="96.099998"
   y="68.400002"
   class="st5"
   width="56.799999"
   height="2.4000001"
   id="rect39"
   style="fill:#2d3033" />
	<rect
   x="96.099998"
   y="52.700001"
   class="st5"
   width="56.799999"
   height="2.4000001"
   id="rect41"
   style="fill:#2d3033" />
	<rect
   x="96.099998"
   y="37.599998"
   class="st5"
   width="56.799999"
   height="2.4000001"
   id="rect43"
   style="fill:#2d3033" />
</g>
<path
   class="st4"
   d="m 11.437134,3.218813 v 7.185627 c 0.0065,0.332136 -0.259318,0.606788 -0.596431,0.619562 -0.0065,0 -0.01945,0 -0.02593,0 H 5.7580744 C 5.4144783,11.017605 5.142194,10.742964 5.1292281,10.40444 v 0 -7.185627 c -0.0065,-0.3321359 0.2593175,-0.606785 0.5964302,-0.6195609 0.0065,0 0.019446,0 0.025932,0 h 5.0566967 c 0.337113,-0.0064 0.61588,0.2554882 0.628847,0.587624 0,0.012784 0,0.019171 0,0.031935 z"
   id="path47"
   inkscape:connector-curvature="0"
   style="fill:#ffcb05;stroke:#231f20;stroke-width:0.12869813" />
<rect
   x="6.1989126"
   y="9.5230026"
   class="st5"
   width="4.2074308"
   height="0.17884231"
   id="rect49"
   style="fill:#2d3033;stroke-width:0.06434906" />
<rect
   x="6.1989126"
   y="8.3733025"
   class="st5"
   width="4.2074308"
   height="0.17884231"
   id="rect51"
   style="fill:#2d3033;stroke-width:0.06434906" />
<rect
   x="6.1989126"
   y="7.2747006"
   class="st5"
   width="4.2074308"
   height="0.17884231"
   id="rect53"
   style="fill:#2d3033;stroke-width:0.06434906" />
<rect
   x="6.1989126"
   y="6.1697083"
   class="st5"
   width="4.2074308"
   height="0.17884231"
   id="rect55"
   style="fill:#2d3033;stroke-width:0.06434906" />
<rect
   x="6.1989126"
   y="5.0263987"
   class="st5"
   width="4.2074308"
   height="0.17884231"
   id="rect57"
   style="fill:#2d3033;stroke-width:0.06434906" />
<rect
   x="6.1989126"
   y="3.9214089"
   class="st5"
   width="4.2074308"
   height="0.17884231"
   id="rect59"
   style="fill:#2d3033;stroke-width:0.06434906" />
<linearGradient
   id="SVGID_2_"
   gradientUnits="userSpaceOnUse"
   x1="184.4572"
   y1="54.047901"
   x2="223.24719"
   y2="116.9079"
   gradientTransform="matrix(0.06482945,0,0,0.06387225,0.22812102,-0.12170581)">
	<stop
   offset="0"
   style="stop-color:#A3A4A4"
   id="stop61" />
	<stop
   offset="4.000000e-02"
   style="stop-color:#A7A8A8"
   id="stop63" />
	<stop
   offset="0.12"
   style="stop-color:#C5C5C5"
   id="stop65" />
	<stop
   offset="0.29"
   style="stop-color:#B2B2B2"
   id="stop67" />
	<stop
   offset="0.44"
   style="stop-color:#E7E6E6"
   id="stop69" />
	<stop
   offset="0.51"
   style="stop-color:#DFDEDE"
   id="stop71" />
	<stop
   offset="0.58"
   style="stop-color:#E5E4E4"
   id="stop73" />
	<stop
   offset="0.72"
   style="stop-color:#DEDEDE"
   id="stop75" />
	<stop
   offset="0.83"
   style="stop-color:#D3D2D2"
   id="stop77" />
	<stop
   offset="0.91"
   style="stop-color:#C2C2C2"
   id="stop79" />
	<stop
   offset="0.98"
   style="stop-color:#ACADAD"
   id="stop81" />
	<stop
   offset="1"
   style="stop-color:#A5A6A6"
   id="stop83" />
</linearGradient>
<path
   class="st7"
   d="m 11.78073,2.7972564 1.581837,1.2774448 0.453805,1.168863 1.918953,2.2802394 -1.017822,-0.4982053 c 0,0 -1.977299,-1.4435122 -2.145855,-1.6095796 C 12.448473,5.2882751 11.78073,2.7972564 11.78073,2.7972564 Z"
   id="path86"
   style="fill:url(#SVGID_2_);stroke-width:0.06434906"
   inkscape:connector-curvature="0" />
<linearGradient
   id="SVGID_3_"
   gradientUnits="userSpaceOnUse"
   x1="-20.729099"
   y1="51.151699"
   x2="-24.6591"
   y2="124.9117"
   gradientTransform="matrix(-0.06482945,0,0,0.06387225,1.3587472,-0.12170581)">
	<stop
   offset="0"
   style="stop-color:#A3A4A4"
   id="stop88" />
	<stop
   offset="4.000000e-02"
   style="stop-color:#A7A8A8"
   id="stop90" />
	<stop
   offset="0.12"
   style="stop-color:#C5C5C5"
   id="stop92" />
	<stop
   offset="0.29"
   style="stop-color:#B2B2B2"
   id="stop94" />
	<stop
   offset="0.44"
   style="stop-color:#E7E6E6"
   id="stop96" />
	<stop
   offset="0.51"
   style="stop-color:#DFDEDE"
   id="stop98" />
	<stop
   offset="0.58"
   style="stop-color:#E5E4E4"
   id="stop100" />
	<stop
   offset="0.72"
   style="stop-color:#DEDEDE"
   id="stop102" />
	<stop
   offset="0.83"
   style="stop-color:#D3D2D2"
   id="stop104" />
	<stop
   offset="0.91"
   style="stop-color:#C2C2C2"
   id="stop106" />
	<stop
   offset="0.98"
   style="stop-color:#ACADAD"
   id="stop108" />
	<stop
   offset="1"
   style="stop-color:#A5A6A6"
   id="stop110" />
</linearGradient>
<path
   class="st8"
   d="M 4.785631,2.7972564 3.2102769,4.0747012 2.7564693,5.2435642 0.83751907,7.5238036 1.8553406,7.0255983 c 0,0 1.9772992,-1.4435122 2.1458545,-1.6095796 C 4.1243705,5.2882751 4.785631,2.7972564 4.785631,2.7972564 Z"
   id="path113"
   style="fill:url(#SVGID_3_);stroke-width:0.06434906"
   inkscape:connector-curvature="0" />
<polygon
   id="_Yol_3"
   class="st9"
   points="70.2,41.7 57.3,82.1 25.5,107.4 39.7,181.4 70.2,181.4 "
   transform="matrix(0.06482945,0,0,0.06387225,0.22812201,0.13378331)"
   style="fill:#d9d9d9" />
<polygon
   id="_Yol_4"
   class="st9"
   points="178,41.7 190.9,82.1 223.1,107.4 209,181.4 178,181.4 "
   transform="matrix(0.06482945,0,0,0.06387225,0.22812201,0.13378331)"
   style="fill:#d9d9d9" />
<polygon
   id="_Yol_5"
   class="st10"
   points="178,181.4 178,41.7 190.9,82.1 "
   transform="matrix(0.06482945,0,0,0.06387225,0.22812201,0.13378331)"
   style="fill:#b1b1b1" />
<polygon
   id="_Yol_6"
   class="st10"
   points="70.2,181.4 70.2,41.7 57.3,82.1 "
   transform="matrix(0.06482945,0,0,0.06387225,0.22812201,0.13378331)"
   style="fill:#b1b1b1" />
<linearGradient
   id="SVGID_4_"
   gradientUnits="userSpaceOnUse"
   x1="25.780001"
   y1="177.90289"
   x2="223.14999"
   y2="177.90289"
   gradientTransform="matrix(0.06482945,0,0,0.06387225,0.22812102,-0.12170581)">
	<stop
   offset="0"
   style="stop-color:#A3A4A4"
   id="stop119" />
	<stop
   offset="4.000000e-02"
   style="stop-color:#A7A8A8"
   id="stop121" />
	<stop
   offset="8.000000e-02"
   style="stop-color:#B2B2B2"
   id="stop123" />
	<stop
   offset="0.12"
   style="stop-color:#C5C5C5"
   id="stop125" />
	<stop
   offset="0.16"
   style="stop-color:#DFDEDE"
   id="stop127" />
	<stop
   offset="0.17"
   style="stop-color:#E7E6E6"
   id="stop129" />
	<stop
   offset="0.58"
   style="stop-color:#E5E4E4"
   id="stop131" />
	<stop
   offset="0.72"
   style="stop-color:#DEDEDE"
   id="stop133" />
	<stop
   offset="0.83"
   style="stop-color:#D3D2D2"
   id="stop135" />
	<stop
   offset="0.91"
   style="stop-color:#C2C2C2"
   id="stop137" />
	<stop
   offset="0.98"
   style="stop-color:#ACADAD"
   id="stop139" />
	<stop
   offset="1"
   style="stop-color:#A5A6A6"
   id="stop141" />
</linearGradient>
<path
   class="st11"
   d="m 1.8812724,6.9936634 0.920579,4.6818346 -0.025932,0.06387 0.4732549,2.248304 0.012961,0.01278 0.2658009,1.360479 c 0,0.08303 0.084281,0.134132 0.1944881,0.134132 h 1.1409979 v -0.01917 c 0.025932,0.01278 0.051864,0.01917 0.084281,0.01917 h 8.1360948 c 0.09724,0.0064 0.181524,-0.07026 0.194488,-0.166067 l 1.419765,-8.3417157 z"
   id="path144"
   style="fill:url(#SVGID_4_);stroke-width:0.06434906"
   inkscape:connector-curvature="0" />
<linearGradient
   id="SVGID_5_"
   gradientUnits="userSpaceOnUse"
   x1="124.5995"
   y1="215.44949"
   x2="125.1795"
   y2="148.72951"
   gradientTransform="matrix(0.06482945,0,0,0.06387225,0.22812102,-0.12170581)">
	<stop
   offset="0"
   style="stop-color:#1A1A1A"
   id="stop146" />
	<stop
   offset="1"
   style="stop-color:#595959"
   id="stop148" />
</linearGradient>
<path
   class="st12"
   d="M 10.510071,9.9445609 C 10.471178,9.8551432 10.42579,9.7784935 10.367448,9.7018457 10.309099,9.6252019 10.237787,9.5613282 10.15351,9.5102294 10.095162,9.4782945 9.8293633,9.5485513 9.6997017,9.612424 L 9.6024597,9.657133 9.3561091,9.7721036 c -0.012961,0 -0.019446,0 -0.032417,-0.0064 -0.012961,-0.0064 -0.1620749,-0.038322 -0.3046972,-0.076644 L 8.7596756,9.6315801 C 8.617053,9.5996452 8.4484957,9.5677004 8.3901487,9.5613233 8.2345573,9.5741071 8.0854492,9.5932582 7.9363432,9.6315801 l -0.2722834,0.06387 c -0.1426246,0.031935 -0.2722833,0.06387 -0.2852502,0.06387 -0.012951,0.0064 -0.032417,0.012784 -0.051864,0.012784 L 7.0741091,9.6571329 6.9768675,9.612424 C 6.8601747,9.5549412 6.7369964,9.5166193 6.6073387,9.4910674 6.5360288,9.4846706 6.3674705,9.631587 6.3091246,9.7018447 6.2507757,9.7784885 6.1989122,9.8551382 6.166499,9.9445599 6.1470526,10.00843 6.257265,10.244761 6.3415378,10.366116 l 0.1750407,0.242715 c 0.084281,0.121356 0.1296588,0.261877 0.103726,0.306587 -0.032417,0.06387 -0.058349,0.127744 -0.084281,0.198004 -0.019446,0.05748 0,0.312975 0.025932,0.45988 l 0.051863,0.306587 c 0.019446,0.127744 0.051864,0.249102 0.103729,0.364071 0.032417,0.05748 0.2852473,0.159681 0.4278728,0.198004 l 0.064824,0.01278 c 0.012961,0 0.019446,0.0064 0.032417,0.0064 -0.2074539,0.108583 -0.4084255,0.242712 -0.5834633,0.402394 -0.025932,0.02555 0.0065,0.05748 0.032417,0.03832 0.058349,-0.03832 0.1231753,-0.08303 0.1815212,-0.121356 l 0.505671,-0.261876 c 0.038893,0.01917 0.07131,0.04471 0.103726,0.07026 l -0.012961,0.01278 C 7.3010154,12.7358 7.1519073,12.895481 7.028732,13.074324 c -0.012961,0.01917 0.012961,0.0511 0.032417,0.03193 0.032417,-0.03193 0.07131,-0.07026 0.103726,-0.108583 L 7.59275,12.678316 c 0.012961,0.01278 0.025932,0.03193 0.038893,0.04471 l 0.019446,0.02555 c -0.025932,0.02555 -0.051863,0.0511 -0.077795,0.08304 -0.1491081,0.166066 -0.2787668,0.357682 -0.3695289,0.562074 -0.012961,0.02555 0.025932,0.03832 0.038903,0.01917 0.025932,-0.03832 0.051863,-0.07664 0.084281,-0.121355 l 0.4084255,-0.434334 0.012951,0.01917 c 0.07131,0.102195 0.1555915,0.198004 0.2463536,0.287426 0.051863,0.03832 0.2658009,0.07026 0.3500795,0.07026 0.090756,0 0.1815223,-0.01278 0.2722834,-0.03194 0.064824,-0.01917 0.2463516,-0.21078 0.3306303,-0.325749 l 0.012961,-0.01917 0.4084262,0.434334 c 0.025932,0.03832 0.051863,0.08303 0.084281,0.121355 0.012961,0.01917 0.045378,0 0.038903,-0.02555 C 9.4014776,13.19569 9.2847896,13.010462 9.142164,12.844392 9.109747,12.806072 9.083815,12.774132 9.051398,12.742198 l 0.012961,-0.02555 c 0.012961,-0.01917 0.025932,-0.03194 0.038893,-0.0511 l 0.4213911,0.319363 c 0.032417,0.03832 0.07131,0.07026 0.103729,0.102194 0.0065,0.0064 0.025932,0.0064 0.032417,0 0.0065,-0.0064 0.0065,-0.01917 0,-0.02555 -0.1231774,-0.178832 -0.2722854,-0.33851 -0.4408408,-0.472643 l -0.012961,-0.01278 c 0.032417,-0.02555 0.07131,-0.04471 0.1037261,-0.07026 l 0.505671,0.261877 c 0.058349,0.03832 0.1231753,0.08303 0.1815218,0.121355 0.025932,0.01917 0.051864,-0.01917 0.032417,-0.04471 C 9.8552832,12.691101 9.6607951,12.556969 9.4533411,12.448387 l 0.025932,-0.0064 0.064824,-0.01917 c 0.1231753,-0.02555 0.2463506,-0.07026 0.3630435,-0.127744 0.058349,-0.03832 0.1426244,-0.293811 0.1685574,-0.434331 l 0.05186,-0.306587 c 0.01945,-0.121359 0.0389,-0.249102 0.0389,-0.370459 -0.01945,-0.09581 -0.05186,-0.191615 -0.09724,-0.281037 -0.02593,-0.0511 0.01945,-0.191618 0.103726,-0.306587 l 0.168558,-0.249102 c 0.0778,-0.102195 0.188005,-0.34491 0.168556,-0.4023963 z M 6.5036127,10.225598 C 6.4323028,10.117015 6.3674705,10.021208 6.3609871,10.01482 V 9.989272 c 0.038893,-0.051096 0.077795,-0.1085823 0.1166928,-0.1532922 0.038903,-0.051096 0.084281,-0.095805 0.1296588,-0.1405175 0.097242,0.025548 0.1944871,0.06387 0.2852492,0.1085826 l 0.019446,0.0064 c 0.084281,0.031935 0.162072,0.070257 0.2398682,0.1149707 0,0.0064 -0.064824,0.1213584 -0.1361422,0.2491034 l -0.1166918,0.217165 c -0.064825,0.127743 -0.3176634,-0.06387 -0.3954597,-0.16607 z m 2.0745417,2.791217 c -0.077795,0.02555 -0.1555915,0.03194 -0.2333847,0.03194 -0.064825,0 -0.1361422,-0.0064 -0.2009716,-0.01278 -0.025932,-0.01917 -0.051863,-0.03832 -0.07131,-0.06387 l 0.1815222,-0.159679 0.097242,-0.08303 0.097242,0.08303 0.1815212,0.166067 c -0.025932,0.0064 -0.038893,0.02555 -0.051864,0.03832 z m 1.3354857,-1.475449 -0.032417,0.191619 v 0 c -0.025932,0 -0.038902,0.01917 -0.038902,0.03832 v 0.166066 c 0,0.0064 0,0.01278 0.0065,0.01917 -0.0065,0.06387 -0.025932,0.121355 -0.045378,0.185227 -0.077795,0.03832 -0.1555915,0.07026 -0.2398711,0.08942 -0.103726,0.02555 -0.1880047,0.03193 -0.1880047,0.0064 C 9.34963,12.135389 9.2977665,12.039582 9.2394195,11.956549 9.1616243,11.841578 9.0967952,11.752156 9.0967952,11.758544 c 0,0.0064 0.019446,0.0958 0.038903,0.198005 0.019446,0.07664 0.025932,0.159678 0.032417,0.242712 -0.012961,0.04471 -0.025932,0.08304 -0.051864,0.121358 v 0 c -0.1361412,-0.0511 -0.2722833,-0.0958 -0.4149089,-0.134131 -0.038893,-0.0064 -0.058349,0.04471 -0.019446,0.05748 0.058349,0.01917 0.1166919,0.03832 0.1750379,0.05748 l 0.1944881,0.102194 -0.045378,0.06387 c -0.097242,-0.05748 -0.207455,-0.09581 -0.3241469,-0.108583 -0.012961,0 -0.025932,0.01278 -0.025932,0.02555 0,0.01278 0.0065,0.01917 0.019446,0.02555 0.019446,0 0.032417,0.0064 0.051863,0.01278 l 0.2009716,0.153294 -0.045378,0.06387 c -0.07131,-0.0511 -0.1491081,-0.08942 -0.2333877,-0.108582 -0.032417,-0.0064 -0.051863,0.03832 -0.019446,0.04471 0.019446,0.0064 0.032417,0.01278 0.051863,0.01917 l 0.1296587,0.140521 -0.058349,0.07664 -0.051864,0.06387 -0.0065,-0.0064 -0.1944881,-0.134133 c -0.058349,-0.03832 -0.103726,-0.07026 -0.103726,-0.07664 0,-0.0064 0,-0.06387 0,-0.134132 V 12.327 l 0.0065,-0.0064 0.3176643,-0.357686 c 0.025932,-0.03193 0.019446,-0.07664 -0.012961,-0.102195 -0.012961,-0.01278 -0.038893,-0.01917 -0.058349,-0.01278 H 8.0465713 c -0.038893,-0.0064 -0.077795,0.01917 -0.084281,0.05748 -0.0065,0.01917 0,0.03832 0.012961,0.05748 l 0.3176634,0.357686 0.0065,0.0064 v 0.198004 c 0,0.07026 0,0.127744 0,0.127744 -0.032417,0.02555 -0.07131,0.0511 -0.103726,0.07664 l -0.1944882,0.134133 -0.0065,0.0064 c -0.019446,-0.02555 -0.038902,-0.04471 -0.051863,-0.07026 l -0.051864,-0.07026 0.1296588,-0.140517 c 0.019446,-0.0064 0.032417,-0.01278 0.051863,-0.01917 0.019446,-0.0064 0.012961,-0.0511 -0.012961,-0.04471 v 0 c -0.084281,0.02555 -0.1620739,0.05748 -0.2333867,0.108583 l -0.045378,-0.06387 0.207455,-0.153294 c 0.019446,-0.0064 0.032417,-0.0064 0.051863,-0.01278 0.032417,-0.0064 0.019446,-0.0511 -0.0065,-0.0511 -0.1166929,0.01278 -0.2269013,0.0511 -0.3241468,0.108585 l -0.045378,-0.06388 0.2009715,-0.102195 c 0.051863,-0.01917 0.1102094,-0.03832 0.1685554,-0.0511 0.038903,-0.01278 0.025932,-0.07026 -0.012961,-0.05748 v 0 c -0.1426256,0.03193 -0.2787648,0.07664 -0.4149069,0.134133 v 0 c -0.019446,-0.02555 -0.032417,-0.0511 -0.038903,-0.08303 -0.0065,-0.09581 0.0065,-0.18523 0.025932,-0.281037 0.019446,-0.102198 0.038893,-0.185231 0.038893,-0.191619 0,-0.0064 -0.064825,0.07665 -0.1426256,0.191619 -0.058349,0.07664 -0.103726,0.159678 -0.1426246,0.242712 0,0.01917 -0.077795,0.0511 -0.1815223,0.02555 -0.077795,-0.01917 -0.149108,-0.03832 -0.2269032,-0.07026 -0.019446,-0.01278 -0.058349,-0.166069 -0.077795,-0.312974 l -0.051864,-0.306587 c -0.019446,-0.108582 -0.032417,-0.217165 -0.045378,-0.325748 0.012961,-0.05748 0.032417,-0.11497 0.058349,-0.172457 L 6.983355,10.736561 7.2426725,10.263908 c 0.045378,-0.09581 0.103726,-0.185231 0.1685554,-0.2746525 0.025932,-0.019171 0.051863,-0.038322 0.084281,-0.051096 L 7.7613152,9.8806878 8.0271151,9.823205 C 8.1697407,9.79127 8.3253322,9.759335 8.3642288,9.759335 8.4938875,9.772119 8.6235463,9.79127 8.753205,9.823205 l 0.2463536,0.057483 0.2657996,0.06387 c 0,0 0.025932,0.012784 0.051863,0.025548 0.077795,0.089417 0.1426246,0.191615 0.1944881,0.293812 l 0.2593175,0.472654 0.1620739,0.300199 c 0.025932,0.0511 0.045378,0.108584 0.058349,0.172457 -0.038893,0.114968 -0.058349,0.22355 -0.077795,0.332133 z m 0.4084259,-1.53932 v 0.01278 c -0.0065,0.0064 -0.06483,0.102196 -0.142626,0.210779 -0.0778,0.108582 -0.3306293,0.293813 -0.3954587,0.166068 L 9.6672885,10.174509 9.5376297,9.9317948 c 0.07131,-0.051096 0.1555915,-0.089418 0.2333848,-0.1213586 l 0.019446,-0.0064 c 0.090766,-0.044709 0.1815213,-0.076644 0.2722835,-0.1085826 0.05835,0.038322 0.103729,0.089418 0.142626,0.1405175 0.03889,0.051096 0.0778,0.1021977 0.116692,0.1532932 z"
   id="path151"
   style="opacity:0.5;fill:url(#SVGID_5_);stroke-width:0.06434906"
   inkscape:connector-curvature="0" />
<linearGradient
   id="SVGID_6_"
   gradientUnits="userSpaceOnUse"
   x1="113.7565"
   y1="215.3503"
   x2="114.3365"
   y2="148.63029"
   gradientTransform="matrix(0.06482945,0,0,0.06387225,0.22812102,-0.12170581)">
	<stop
   offset="0"
   style="stop-color:#1A1A1A"
   id="stop153" />
	<stop
   offset="1"
   style="stop-color:#595959"
   id="stop155" />
</linearGradient>
<path
   class="st13"
   d="m 8.0465526,10.998452 -0.1880047,0.0064 -0.6418132,0.01917 c -0.077795,0 -0.077795,0.01278 0,0.02555 l 0.3954597,0.05748 c -0.0065,0.04471 0.019446,0.08942 0.07131,0.102198 0.051864,0.01278 0.090766,-0.01917 0.103728,-0.07026 v -0.0064 l 0.064824,0.0064 c 0.077795,0.01278 0.1296588,0.07664 0.1231753,0.153294 l -0.084281,0.281038 c -0.0065,0.07664 0.019446,0.140519 0.051863,0.140519 0.019446,0.0064 0.045378,0.0064 0.064824,0 0,0 0,-0.06387 0.0065,-0.140519 l 0.064834,-0.261876 c 0.0065,-0.07664 0.0065,-0.172456 0.012951,-0.223554 0.0065,-0.0511 -0.019446,-0.08942 -0.045378,-0.08942 z"
   id="path158"
   style="opacity:0.5;fill:url(#SVGID_6_);stroke-width:0.06434906"
   inkscape:connector-curvature="0" />
<linearGradient
   id="SVGID_7_"
   gradientUnits="userSpaceOnUse"
   x1="135.9093"
   y1="215.54021"
   x2="136.4893"
   y2="148.8302"
   gradientTransform="matrix(0.06482945,0,0,0.06387225,0.22812102,-0.12170581)">
	<stop
   offset="0"
   style="stop-color:#1A1A1A"
   id="stop160" />
	<stop
   offset="1"
   style="stop-color:#595959"
   id="stop162" />
</linearGradient>
<path
   class="st14"
   d="m 9.4728004,11.017614 -0.641812,-0.01917 -0.1880046,-0.0064 c -0.025932,0 -0.045378,0.03832 -0.045378,0.08303 0,0.04471 0.0065,0.146906 0.0065,0.223553 l 0.064824,0.261877 c 0.0065,0.07664 0.0065,0.140517 0.0065,0.140517 0.019446,0.0064 0.045378,0.0064 0.064824,0 0.038893,0 0.058349,-0.06387 0.051863,-0.140517 l -0.077795,-0.28104 c -0.0065,-0.07664 0.045378,-0.140518 0.1231753,-0.153293 l 0.064824,-0.0064 c 0.0065,0.04471 0.045378,0.08303 0.097242,0.07664 0.045378,-0.0064 0.084281,-0.04471 0.077795,-0.09581 v -0.0064 l 0.3954593,-0.05748 c 0.07131,-0.0064 0.07131,-0.01278 0,-0.01917 z"
   id="path165"
   style="opacity:0.5;fill:url(#SVGID_7_);stroke-width:0.06434906"
   inkscape:connector-curvature="0" />
<linearGradient
   id="SVGID_8_"
   gradientUnits="userSpaceOnUse"
   x1="111.9294"
   y1="215.3304"
   x2="112.5094"
   y2="148.6203"
   gradientTransform="matrix(0.06482945,0,0,0.06387225,0.22812102,-0.12170581)">
	<stop
   offset="0"
   style="stop-color:#1A1A1A"
   id="stop167" />
	<stop
   offset="1"
   style="stop-color:#595959"
   id="stop169" />
</linearGradient>
<ellipse
   class="st15"
   cx="7.5149527"
   cy="10.1745"
   rx="0.14262478"
   ry="0.17245509"
   id="ellipse172"
   style="opacity:0.5;fill:url(#SVGID_8_);stroke-width:0.06434906" />
<linearGradient
   id="SVGID_9_"
   gradientUnits="userSpaceOnUse"
   x1="109.3756"
   y1="215.3102"
   x2="109.9556"
   y2="148.6003"
   gradientTransform="matrix(0.06482945,0,0,0.06387225,0.22812102,-0.12170581)">
	<stop
   offset="0"
   style="stop-color:#1A1A1A"
   id="stop174" />
	<stop
   offset="1"
   style="stop-color:#595959"
   id="stop176" />
</linearGradient>
<ellipse
   class="st16"
   cx="7.3463936"
   cy="10.513023"
   id="circle179"
   style="opacity:0.5;fill:url(#SVGID_9_);stroke-width:0.06434906"
   rx="0.11669299"
   ry="0.11497005" />
<linearGradient
   id="SVGID_10_"
   gradientUnits="userSpaceOnUse"
   x1="118.359"
   y1="215.38989"
   x2="118.939"
   y2="148.66991"
   gradientTransform="matrix(0.06482945,0,0,0.06387225,0.22741245,-0.12168711)">
	<stop
   offset="0"
   style="stop-color:#1A1A1A"
   id="stop181" />
	<stop
   offset="1"
   style="stop-color:#595959"
   id="stop183" />
</linearGradient>
<path
   class="st17"
   d="m 7.8650314,10.091468 c 0.025932,-0.07664 0.07131,-0.1213582 0.1102084,-0.1149705 0.038893,0.0064 0.045378,0.08303 0.025932,0.1532935 -0.025932,0.07664 -0.07131,0.121356 -0.1102114,0.114971 -0.038893,-0.0064 -0.051863,-0.08303 -0.025932,-0.153294 z"
   id="path186"
   style="opacity:0.5;fill:url(#SVGID_10_);stroke-width:0.06434906"
   inkscape:connector-curvature="0" />
<linearGradient
   id="SVGID_11_"
   gradientUnits="userSpaceOnUse"
   x1="115.4804"
   y1="215.3703"
   x2="116.0604"
   y2="148.6503"
   gradientTransform="matrix(0.06482945,0,0,0.06387225,0.22812102,-0.12170581)">
	<stop
   offset="0"
   style="stop-color:#1A1A1A"
   id="stop188" />
	<stop
   offset="1"
   style="stop-color:#595959"
   id="stop190" />
</linearGradient>
<ellipse
   class="st18"
   cx="7.7418537"
   cy="10.551346"
   rx="0.084278278"
   ry="0.070259482"
   id="ellipse193"
   style="opacity:0.5;fill:url(#SVGID_11_);stroke-width:0.06434906" />
<linearGradient
   id="SVGID_12_"
   gradientUnits="userSpaceOnUse"
   x1="145.3772"
   y1="215.6297"
   x2="145.9572"
   y2="148.9097"
   gradientTransform="matrix(0.06482945,0,0,0.06387225,0.22739178,-0.12185343)">
	<stop
   offset="0"
   style="stop-color:#1A1A1A"
   id="stop195" />
	<stop
   offset="1"
   style="stop-color:#595959"
   id="stop197" />
</linearGradient>
<ellipse
   class="st19"
   cx="9.6672916"
   cy="11.930991"
   id="circle200"
   style="opacity:0.5;fill:url(#SVGID_12_);stroke-width:0.06434906"
   rx="0.11669299"
   ry="0.11497005" />
<linearGradient
   id="SVGID_13_"
   gradientUnits="userSpaceOnUse"
   x1="145.18559"
   y1="215.6196"
   x2="145.76559"
   y2="148.9095"
   gradientTransform="matrix(0.06482945,0,0,0.06387225,0.22707489,-0.12200597)">
	<stop
   offset="0"
   style="stop-color:#1A1A1A"
   id="stop202" />
	<stop
   offset="1"
   style="stop-color:#595959"
   id="stop204" />
</linearGradient>
<path
   class="st20"
   d="m 9.5894932,11.579691 c 0.012961,-0.07664 0.051863,-0.134131 0.090766,-0.127743 0.038893,0.0064 0.058349,0.07026 0.045378,0.146904 -0.012961,0.07664 -0.051863,0.134133 -0.090766,0.127745 -0.038893,-0.0064 -0.058349,-0.07026 -0.045378,-0.146906 z"
   id="path207"
   style="opacity:0.5;fill:url(#SVGID_13_);stroke-width:0.06434906"
   inkscape:connector-curvature="0" />
<linearGradient
   id="SVGID_14_"
   gradientUnits="userSpaceOnUse"
   x1="141.9406"
   y1="215.5997"
   x2="142.5206"
   y2="148.8797"
   gradientTransform="matrix(0.06482945,0,0,0.06387225,0.22857667,-0.12125901)">
	<stop
   offset="0"
   style="stop-color:#1A1A1A"
   id="stop209" />
	<stop
   offset="1"
   style="stop-color:#595959"
   id="stop211" />
</linearGradient>
<path
   class="st21"
   d="m 9.3755558,11.758534 c 0.019446,-0.03193 0.064824,-0.04471 0.103728,-0.02555 0.038893,0.01917 0.058349,0.06387 0.038893,0.0958 -0.019446,0.03194 -0.064834,0.04471 -0.103726,0.02555 -0.038903,-0.01278 -0.058349,-0.05748 -0.038903,-0.0958 z"
   id="path214"
   style="opacity:0.5;fill:url(#SVGID_14_);stroke-width:0.06434906"
   inkscape:connector-curvature="0" />
<polygon
   class="st22"
   points="242.3,153 2.1,153 21.8,114.5 226.1,114.5 "
   id="polygon216"
   transform="matrix(0.06482945,0,0,0.06387225,0.22812201,0.13378331)"
   style="opacity:0.2;enable-background:new" />
<path
   class="st23"
   d="m 13.362567,4.7389739 0.453805,1.1688601 0.96596,1.1497012 0.952993,0.4662684 L 13.816372,5.2435642 13.362567,4.0747012 11.78073,2.7972564 c 0,0 0.103726,0.3768468 0.233385,0.8495002 z"
   id="path218"
   inkscape:connector-curvature="0"
   style="opacity:0.1;fill:#ffffff;stroke-width:0.06434906;enable-background:new" />
<path
   class="st23"
   d="M 2.7564693,5.907834 3.2102769,4.7389739 4.5587297,3.6467566 C 4.6883884,3.1804911 4.7921134,2.7972564 4.7921134,2.7972564 L 3.2102769,4.0747012 2.7564693,5.2435642 0.83751907,7.5238036 1.7905113,7.0575352 Z"
   id="path220"
   inkscape:connector-curvature="0"
   style="opacity:0.1;fill:#ffffff;stroke-width:0.06434906;enable-background:new" />
<linearGradient
   id="SVGID_15_"
   gradientUnits="userSpaceOnUse"
   x1="5.9000001"
   y1="130.60001"
   x2="239.2"
   y2="130.60001"
   gradientTransform="translate(0,-4)">
	<stop
   offset="0"
   style="stop-color:#A3A4A4"
   id="stop222" />
	<stop
   offset="4.000000e-02"
   style="stop-color:#A7A8A8"
   id="stop224" />
	<stop
   offset="8.000000e-02"
   style="stop-color:#B2B2B2"
   id="stop226" />
	<stop
   offset="0.12"
   style="stop-color:#C5C5C5"
   id="stop228" />
	<stop
   offset="0.16"
   style="stop-color:#DFDEDE"
   id="stop230" />
	<stop
   offset="0.17"
   style="stop-color:#E7E6E6"
   id="stop232" />
	<stop
   offset="0.58"
   style="stop-color:#E5E4E4"
   id="stop234" />
	<stop
   offset="0.72"
   style="stop-color:#DEDEDE"
   id="stop236" />
	<stop
   offset="0.83"
   style="stop-color:#D3D2D2"
   id="stop238" />
	<stop
   offset="0.91"
   style="stop-color:#C2C2C2"
   id="stop240" />
	<stop
   offset="0.98"
   style="stop-color:#ACADAD"
   id="stop242" />
	<stop
   offset="1"
   style="stop-color:#A5A6A6"
   id="stop244" />
</linearGradient>
<polygon
   class="st24"
   points="239.2,145.3 5.9,145.3 25.1,107.9 223.5,107.9 "
   id="polygon247"
   style="fill:url(#SVGID_15_)"
   transform="matrix(0.06482945,0,0,0.06387225,0.22812201,0.13378331)" />
<polygon
   class="st23"
   points="223.5,107.9 25.1,107.9 5.9,145.3 11.2,145.3 25.1,118.2 223.5,118.2 234.8,145.3 239.2,145.3 "
   id="polygon249"
   transform="matrix(0.06482945,0,0,0.06387225,0.22812201,0.13378331)"
   style="opacity:0.1;fill:#ffffff;enable-background:new" />
<path
   class="st22"
   d="m 13.362567,14.811625 -0.09077,0.530141 c -0.01296,0.0958 -0.09724,0.172454 -0.194489,0.166069 H 4.947701 c -0.025932,0 -0.058349,-0.0064 -0.084281,-0.01917 v 0.01917 H 3.7224225 c -0.1102095,0 -0.1944881,-0.05748 -0.1944881,-0.134133 l -0.1102095,-0.555689 0.1102095,1.219959 c 0,0.08304 0.084281,0.134132 0.1944881,0.134132 h 1.1409978 v -0.01917 c 0.025932,0.01278 0.051864,0.01917 0.084281,0.01917 h 8.1360947 c 0.09724,0.0064 0.181524,-0.07026 0.194488,-0.166067 z"
   id="path251"
   inkscape:connector-curvature="0"
   style="opacity:0.2;stroke-width:0.06434906;enable-background:new" />
</svg>