<?xml version="1.0" encoding="utf-8"?>
<!-- Generator: Adobe Illustrator 21.1.0, SVG Export Plug-In . SVG Version: 6.00 Build 0)  -->
<svg version="1.1" id="Layer_1" xmlns="http://www.w3.org/2000/svg" xmlns:xlink="http://www.w3.org/1999/xlink" x="0px" y="0px"
	 viewBox="0 0 247.4 251" style="enable-background:new 0 0 247.4 251;" xml:space="preserve">
<style type="text/css">
	.st0{fill:url(#SVGID_1_);}
	.st1{fill:#C6C6C5;}
	.st2{fill:#9C9B9B;}
	.st3{opacity:0.25;}
	.st4{fill:#FFCB05;stroke:#231F20;stroke-width:2;}
	.st5{fill:#2D3033;}
	.st6{opacity:0.5;}
	.st7{fill:url(#SVGID_2_);}
	.st8{fill:url(#SVGID_3_);}
	.st9{fill:#D9D9D9;}
	.st10{fill:#B1B1B1;}
	.st11{fill:url(#SVGID_4_);}
	.st12{opacity:0.5;fill:url(#SVGID_5_);}
	.st13{opacity:0.5;fill:url(#SVGID_6_);}
	.st14{opacity:0.5;fill:url(#SVGID_7_);}
	.st15{opacity:0.5;fill:url(#SVGID_8_);}
	.st16{opacity:0.5;fill:url(#SVGID_9_);}
	.st17{opacity:0.5;fill:url(#SVGID_10_);}
	.st18{opacity:0.5;fill:url(#SVGID_11_);}
	.st19{opacity:0.5;fill:url(#SVGID_12_);}
	.st20{opacity:0.5;fill:url(#SVGID_13_);}
	.st21{opacity:0.5;fill:url(#SVGID_14_);}
	.st22{opacity:0.2;enable-background:new    ;}
	.st23{opacity:0.1;fill:#FFFFFF;enable-background:new    ;}
	.st24{fill:url(#SVGID_15_);}
</style>
<title>Asset 2</title>
<linearGradient id="SVGID_1_" gradientUnits="userSpaceOnUse" x1="123.7" y1="246.72" x2="123.7" y2="52.8" gradientTransform="matrix(1 0 0 1 0 -4)">
	<stop  offset="0" style="stop-color:#1A1A1A"/>
	<stop  offset="1" style="stop-color:#595959"/>
</linearGradient>
<path class="st0" d="M53.7,243.8c-3.3,0-5.9-2.1-6.1-4.9l-3.9-20.1l-0.2-0.1l-7.7-37.1l0.4-0.9L30,148.4H0.7l17.1-33.5L0,123.7
	l36.1-45.2l7.1-18.6l24.1-19.8l2.1-1.7l4.6,1.1l1.4,0.3c0.9-1,1.9-1.8,3-2.5v-9.4c-0.1-4.5,2.5-8.6,6.6-10.5v-7.1
	C84.9,4.7,89.2,0.1,94.7,0c0.2,0,0.3,0,0.5,0h57.6c5.5-0.1,10.1,4.2,10.2,9.7c0,0.2,0,0.3,0,0.5v7.1c4.1,1.9,6.7,6,6.6,10.5v9.4
	c1.1,0.7,2.1,1.5,2.9,2.4l1.6-0.4l4.5-1.1l1.7,1.4L205,59.9l7.1,18.6l35.3,44.2l-18-8.2l14.2,34h-24.4l-15.1,90
	c-0.3,3.1-3,5.4-6.1,5.4L53.7,243.8L53.7,243.8z"/>
<polygon id="_Yol_" class="st1" points="124.3,107 178,107.4 178,41.7 124.3,54.6 "/>
<polygon id="_Yol_2" class="st2" points="124.3,107 70.2,107.4 70.2,41.7 124.3,54.6 "/>
<g class="st3">
	<path class="st4" d="M160.2,10.2v83.1c0.1,3.9-3,7.1-6.9,7.1c-0.1,0-0.2,0-0.3,0H95.4c-3.9-0.1-7.1-3.2-7.1-7.1l0,0V10.2
		c-0.1-3.9,3-7.1,6.9-7.1c0.1,0,0.2,0,0.3,0h57.6c3.9-0.1,7.1,3,7.1,6.9C160.2,10.1,160.2,10.2,160.2,10.2z"/>
	<rect x="100.5" y="83.2" class="st5" width="47.9" height="2"/>
	<rect x="100.5" y="69.9" class="st5" width="47.9" height="2"/>
	<rect x="100.5" y="57.2" class="st5" width="47.9" height="2"/>
	<rect x="100.5" y="44.4" class="st5" width="47.9" height="2"/>
	<rect x="100.5" y="31.1" class="st5" width="47.9" height="2"/>
	<rect x="100.5" y="18.4" class="st5" width="47.9" height="2"/>
</g>
<g class="st6">
	<path class="st4" d="M166.8,27.9v98.5c0.1,4.6-3.5,8.3-8.1,8.5c-0.1,0-0.3,0-0.4,0H90.1c-4.6-0.1-8.4-3.8-8.5-8.5l0,0V27.9
		c-0.1-4.6,3.5-8.3,8.1-8.5c0.1,0,0.3,0,0.4,0h68.3c4.6-0.1,8.3,3.5,8.5,8.1C166.8,27.6,166.8,27.8,166.8,27.9z"/>
	<rect x="96.1" y="114.3" class="st5" width="56.8" height="2.4"/>
	<rect x="96.1" y="98.6" class="st5" width="56.8" height="2.4"/>
	<rect x="96.1" y="83.5" class="st5" width="56.8" height="2.4"/>
	<rect x="96.1" y="68.4" class="st5" width="56.8" height="2.4"/>
	<rect x="96.1" y="52.7" class="st5" width="56.8" height="2.4"/>
	<rect x="96.1" y="37.6" class="st5" width="56.8" height="2.4"/>
</g>
<path class="st4" d="M172.9,48.3v112.5c0.1,5.2-4,9.5-9.2,9.7c-0.1,0-0.3,0-0.4,0h-78c-5.3-0.1-9.5-4.4-9.7-9.7l0,0V48.3
	c-0.1-5.2,4-9.5,9.2-9.7c0.1,0,0.3,0,0.4,0h78c5.2-0.1,9.5,4,9.7,9.2C172.9,48,172.9,48.1,172.9,48.3z"/>
<rect x="92.1" y="147" class="st5" width="64.9" height="2.8"/>
<rect x="92.1" y="129" class="st5" width="64.9" height="2.8"/>
<rect x="92.1" y="111.8" class="st5" width="64.9" height="2.8"/>
<rect x="92.1" y="94.5" class="st5" width="64.9" height="2.8"/>
<rect x="92.1" y="76.6" class="st5" width="64.9" height="2.8"/>
<rect x="92.1" y="59.3" class="st5" width="64.9" height="2.8"/>
<linearGradient id="SVGID_2_" gradientUnits="userSpaceOnUse" x1="184.4572" y1="54.0479" x2="223.2472" y2="116.9079" gradientTransform="matrix(1 0 0 1 0 -4)">
	<stop  offset="0" style="stop-color:#A3A4A4"/>
	<stop  offset="4.000000e-02" style="stop-color:#A7A8A8"/>
	<stop  offset="0.12" style="stop-color:#C5C5C5"/>
	<stop  offset="0.29" style="stop-color:#B2B2B2"/>
	<stop  offset="0.44" style="stop-color:#E7E6E6"/>
	<stop  offset="0.51" style="stop-color:#DFDEDE"/>
	<stop  offset="0.58" style="stop-color:#E5E4E4"/>
	<stop  offset="0.72" style="stop-color:#DEDEDE"/>
	<stop  offset="0.83" style="stop-color:#D3D2D2"/>
	<stop  offset="0.91" style="stop-color:#C2C2C2"/>
	<stop  offset="0.98" style="stop-color:#ACADAD"/>
	<stop  offset="1" style="stop-color:#A5A6A6"/>
</linearGradient>
<path class="st7" d="M178.2,41.7l24.4,20l7,18.3l29.6,35.7l-15.7-7.8c0,0-30.5-22.6-33.1-25.2C188.5,80.7,178.2,41.7,178.2,41.7z"/>
<linearGradient id="SVGID_3_" gradientUnits="userSpaceOnUse" x1="-20.7291" y1="51.1517" x2="-24.6591" y2="124.9117" gradientTransform="matrix(-1 0 0 1 17.44 -4)">
	<stop  offset="0" style="stop-color:#A3A4A4"/>
	<stop  offset="4.000000e-02" style="stop-color:#A7A8A8"/>
	<stop  offset="0.12" style="stop-color:#C5C5C5"/>
	<stop  offset="0.29" style="stop-color:#B2B2B2"/>
	<stop  offset="0.44" style="stop-color:#E7E6E6"/>
	<stop  offset="0.51" style="stop-color:#DFDEDE"/>
	<stop  offset="0.58" style="stop-color:#E5E4E4"/>
	<stop  offset="0.72" style="stop-color:#DEDEDE"/>
	<stop  offset="0.83" style="stop-color:#D3D2D2"/>
	<stop  offset="0.91" style="stop-color:#C2C2C2"/>
	<stop  offset="0.98" style="stop-color:#ACADAD"/>
	<stop  offset="1" style="stop-color:#A5A6A6"/>
</linearGradient>
<path class="st8" d="M70.3,41.7L46,61.7L39,80L9.4,115.7l15.7-7.8c0,0,30.5-22.6,33.1-25.2C60.1,80.7,70.3,41.7,70.3,41.7z"/>
<polygon id="_Yol_3" class="st9" points="39.7,181.4 70.2,181.4 70.2,41.7 57.3,82.1 25.5,107.4 "/>
<polygon id="_Yol_4" class="st9" points="209,181.4 178,181.4 178,41.7 190.9,82.1 223.1,107.4 "/>
<polygon id="_Yol_5" class="st10" points="178,181.4 178,41.7 190.9,82.1 "/>
<polygon id="_Yol_6" class="st10" points="70.2,181.4 70.2,41.7 57.3,82.1 "/>
<linearGradient id="SVGID_4_" gradientUnits="userSpaceOnUse" x1="25.78" y1="177.9029" x2="223.15" y2="177.9029" gradientTransform="matrix(1 0 0 1 0 -4)">
	<stop  offset="0" style="stop-color:#A3A4A4"/>
	<stop  offset="4.000000e-02" style="stop-color:#A7A8A8"/>
	<stop  offset="8.000000e-02" style="stop-color:#B2B2B2"/>
	<stop  offset="0.12" style="stop-color:#C5C5C5"/>
	<stop  offset="0.16" style="stop-color:#DFDEDE"/>
	<stop  offset="0.17" style="stop-color:#E7E6E6"/>
	<stop  offset="0.58" style="stop-color:#E5E4E4"/>
	<stop  offset="0.72" style="stop-color:#DEDEDE"/>
	<stop  offset="0.83" style="stop-color:#D3D2D2"/>
	<stop  offset="0.91" style="stop-color:#C2C2C2"/>
	<stop  offset="0.98" style="stop-color:#ACADAD"/>
	<stop  offset="1" style="stop-color:#A5A6A6"/>
</linearGradient>
<path class="st11" d="M25.5,107.4l14.2,73.3l-0.4,1l7.3,35.2l0.2,0.2l4.1,21.3c0,1.3,1.3,2.1,3,2.1h17.6v-0.3
	c0.4,0.2,0.8,0.3,1.3,0.3h125.5c1.5,0.1,2.8-1.1,3-2.6l21.9-130.6L25.5,107.4z"/>
<linearGradient id="SVGID_5_" gradientUnits="userSpaceOnUse" x1="124.5995" y1="215.4495" x2="125.1795" y2="148.7295" gradientTransform="matrix(1 0 0 1 0 -4)">
	<stop  offset="0" style="stop-color:#1A1A1A"/>
	<stop  offset="1" style="stop-color:#595959"/>
</linearGradient>
<path class="st12" d="M158.6,153.6c-0.6-1.4-1.3-2.6-2.2-3.8s-2-2.2-3.3-3c-0.9-0.5-5,0.6-7,1.6l-1.5,0.7l-3.8,1.8
	c-0.2,0-0.3,0-0.5-0.1s-2.5-0.6-4.7-1.2l-4-0.9c-2.2-0.5-4.8-1-5.7-1.1c-2.4,0.2-4.7,0.5-7,1.1l-4.2,1c-2.2,0.5-4.2,1-4.4,1
	c-0.2,0.1-0.5,0.2-0.8,0.2l-3.9-1.8l-1.5-0.7c-1.8-0.9-3.7-1.5-5.7-1.9c-1.1-0.1-3.7,2.2-4.6,3.3c-0.9,1.2-1.7,2.4-2.2,3.8
	c-0.3,1,1.4,4.7,2.7,6.6L97,164c1.3,1.9,2,4.1,1.6,4.8c-0.5,1-0.9,2-1.3,3.1c-0.3,0.9,0,4.9,0.4,7.2l0.8,4.8c0.3,2,0.8,3.9,1.6,5.7
	c0.5,0.9,4.4,2.5,6.6,3.1l1,0.2c0.2,0,0.3,0.1,0.5,0.1c-3.2,1.7-6.3,3.8-9,6.3c-0.4,0.4,0.1,0.9,0.5,0.6c0.9-0.6,1.9-1.3,2.8-1.9
	l7.8-4.1c0.6,0.3,1.1,0.7,1.6,1.1l-0.2,0.2c-2.6,2.1-4.9,4.6-6.8,7.4c-0.2,0.3,0.2,0.8,0.5,0.5c0.5-0.5,1.1-1.1,1.6-1.7l6.6-5
	c0.2,0.2,0.4,0.5,0.6,0.7l0.3,0.4c-0.4,0.4-0.8,0.8-1.2,1.3c-2.3,2.6-4.3,5.6-5.7,8.8c-0.2,0.4,0.4,0.6,0.6,0.3
	c0.4-0.6,0.8-1.2,1.3-1.9l6.3-6.8l0.2,0.3c1.1,1.6,2.4,3.1,3.8,4.5c0.8,0.6,4.1,1.1,5.4,1.1c1.4,0,2.8-0.2,4.2-0.5
	c1-0.3,3.8-3.3,5.1-5.1l0.2-0.3l6.3,6.8c0.4,0.6,0.8,1.3,1.3,1.9c0.2,0.3,0.7,0,0.6-0.4c-1.4-3-3.2-5.9-5.4-8.5
	c-0.5-0.6-0.9-1.1-1.4-1.6l0.2-0.4c0.2-0.3,0.4-0.5,0.6-0.8l6.5,5c0.5,0.6,1.1,1.1,1.6,1.6c0.1,0.1,0.4,0.1,0.5,0s0.1-0.3,0-0.4
	c-1.9-2.8-4.2-5.3-6.8-7.4l-0.2-0.2c0.5-0.4,1.1-0.7,1.6-1.1l7.8,4.1c0.9,0.6,1.9,1.3,2.8,1.9c0.4,0.3,0.8-0.3,0.5-0.7
	c-2.7-2.4-5.7-4.5-8.9-6.2l0.4-0.1l1-0.3c1.9-0.4,3.8-1.1,5.6-2c0.9-0.6,2.2-4.6,2.6-6.8l0.8-4.8c0.3-1.9,0.6-3.9,0.6-5.8
	c-0.3-1.5-0.8-3-1.5-4.4c-0.4-0.8,0.3-3,1.6-4.8l2.6-3.9C157.2,158.3,158.9,154.5,158.6,153.6z M96.8,158c-1.1-1.7-2.1-3.2-2.2-3.3
	v-0.4c0.6-0.8,1.2-1.7,1.8-2.4c0.6-0.8,1.3-1.5,2-2.2c1.5,0.4,3,1,4.4,1.7l0.3,0.1c1.3,0.5,2.5,1.1,3.7,1.8c0,0.1-1,1.9-2.1,3.9
	l-1.8,3.4C101.9,162.6,98,159.6,96.8,158z M128.8,201.7c-1.2,0.4-2.4,0.5-3.6,0.5c-1,0-2.1-0.1-3.1-0.2c-0.4-0.3-0.8-0.6-1.1-1
	l2.8-2.5l1.5-1.3l1.5,1.3l2.8,2.6C129.2,201.2,129,201.5,128.8,201.7L128.8,201.7z M149.4,178.6l-0.5,3l0,0c-0.4,0-0.6,0.3-0.6,0.6
	v2.6c0,0.1,0,0.2,0.1,0.3c-0.1,1-0.4,1.9-0.7,2.9c-1.2,0.6-2.4,1.1-3.7,1.4c-1.6,0.4-2.9,0.5-2.9,0.1c-0.4-1.6-1.2-3.1-2.1-4.4
	c-1.2-1.8-2.2-3.2-2.2-3.1s0.3,1.5,0.6,3.1c0.3,1.2,0.4,2.5,0.5,3.8c-0.2,0.7-0.4,1.3-0.8,1.9l0,0c-2.1-0.8-4.2-1.5-6.4-2.1
	c-0.6-0.1-0.9,0.7-0.3,0.9c0.9,0.3,1.8,0.6,2.7,0.9l3,1.6l-0.7,1c-1.5-0.9-3.2-1.5-5-1.7c-0.2,0-0.4,0.2-0.4,0.4s0.1,0.3,0.3,0.4
	c0.3,0,0.5,0.1,0.8,0.2l3.1,2.4l-0.7,1c-1.1-0.8-2.3-1.4-3.6-1.7c-0.5-0.1-0.8,0.6-0.3,0.7c0.3,0.1,0.5,0.2,0.8,0.3l2,2.2l-0.9,1.2
	l-0.8,1l-0.1-0.1l-3-2.1c-0.9-0.6-1.6-1.1-1.6-1.2s0-1,0-2.1v-3.1l0.1-0.1l4.9-5.6c0.4-0.5,0.3-1.2-0.2-1.6
	c-0.2-0.2-0.6-0.3-0.9-0.2h-9.3c-0.6-0.1-1.2,0.3-1.3,0.9c-0.1,0.3,0,0.6,0.2,0.9l4.9,5.6l0.1,0.1v3.1c0,1.1,0,2,0,2
	c-0.5,0.4-1.1,0.8-1.6,1.2l-3,2.1l-0.1,0.1c-0.3-0.4-0.6-0.7-0.8-1.1l-0.8-1.1l2-2.2c0.3-0.1,0.5-0.2,0.8-0.3s0.2-0.8-0.2-0.7l0,0
	c-1.3,0.4-2.5,0.9-3.6,1.7l-0.7-1l3.2-2.4c0.3-0.1,0.5-0.1,0.8-0.2c0.5-0.1,0.3-0.8-0.1-0.8c-1.8,0.2-3.5,0.8-5,1.7l-0.7-1l3.1-1.6
	c0.8-0.3,1.7-0.6,2.6-0.8c0.6-0.2,0.4-1.1-0.2-0.9l0,0c-2.2,0.5-4.3,1.2-6.4,2.1l0,0c-0.3-0.4-0.5-0.8-0.6-1.3
	c-0.1-1.5,0.1-2.9,0.4-4.4c0.3-1.6,0.6-2.9,0.6-3s-1,1.2-2.2,3c-0.9,1.2-1.6,2.5-2.2,3.8c0,0.3-1.2,0.8-2.8,0.4
	c-1.2-0.3-2.3-0.6-3.5-1.1c-0.3-0.2-0.9-2.6-1.2-4.9l-0.8-4.8c-0.3-1.7-0.5-3.4-0.7-5.1c0.2-0.9,0.5-1.8,0.9-2.7l2.5-4.7l4-7.4
	c0.7-1.5,1.6-2.9,2.6-4.3c0.4-0.3,0.8-0.6,1.3-0.8l4.1-0.9l4.1-0.9c2.2-0.5,4.6-1,5.2-1c2,0.2,4,0.5,6,1l3.8,0.9l4.1,1
	c0,0,0.4,0.2,0.8,0.4c1.2,1.4,2.2,3,3,4.6l4,7.4l2.5,4.7c0.4,0.8,0.7,1.7,0.9,2.7C150,175.2,149.7,176.9,149.4,178.6L149.4,178.6z
	 M155.7,154.5v0.2c-0.1,0.1-1,1.6-2.2,3.3s-5.1,4.6-6.1,2.6l-1.8-3.4l-2-3.8c1.1-0.8,2.4-1.4,3.6-1.9l0.3-0.1
	c1.4-0.7,2.8-1.2,4.2-1.7c0.9,0.6,1.6,1.4,2.2,2.2c0.6,0.8,1.2,1.6,1.8,2.4V154.5z"/>
<linearGradient id="SVGID_6_" gradientUnits="userSpaceOnUse" x1="113.7565" y1="215.3503" x2="114.3365" y2="148.6303" gradientTransform="matrix(1 0 0 1 0 -4)">
	<stop  offset="0" style="stop-color:#1A1A1A"/>
	<stop  offset="1" style="stop-color:#595959"/>
</linearGradient>
<path class="st13" d="M120.6,170.1l-2.9,0.1l-9.9,0.3c-1.2,0-1.2,0.2,0,0.4l6.1,0.9c-0.1,0.7,0.3,1.4,1.1,1.6s1.4-0.3,1.6-1.1v-0.1
	l1,0.1c1.2,0.2,2,1.2,1.9,2.4l-1.3,4.4c-0.1,1.2,0.3,2.2,0.8,2.2c0.3,0.1,0.7,0.1,1,0c0,0,0-1,0.1-2.2l1-4.1
	c0.1-1.2,0.1-2.7,0.2-3.5S121,170.1,120.6,170.1z"/>
<linearGradient id="SVGID_7_" gradientUnits="userSpaceOnUse" x1="135.9093" y1="215.5402" x2="136.4893" y2="148.8302" gradientTransform="matrix(1 0 0 1 0 -4)">
	<stop  offset="0" style="stop-color:#1A1A1A"/>
	<stop  offset="1" style="stop-color:#595959"/>
</linearGradient>
<path class="st14" d="M142.6,170.4l-9.9-0.3l-2.9-0.1c-0.4,0-0.7,0.6-0.7,1.3s0.1,2.3,0.1,3.5l1,4.1c0.1,1.2,0.1,2.2,0.1,2.2
	c0.3,0.1,0.7,0.1,1,0c0.6,0,0.9-1,0.8-2.2l-1.2-4.4c-0.1-1.2,0.7-2.2,1.9-2.4l1-0.1c0.1,0.7,0.7,1.3,1.5,1.2
	c0.7-0.1,1.3-0.7,1.2-1.5v-0.1l6.1-0.9C143.7,170.6,143.7,170.5,142.6,170.4z"/>
<linearGradient id="SVGID_8_" gradientUnits="userSpaceOnUse" x1="111.9294" y1="215.3304" x2="112.5094" y2="148.6203" gradientTransform="matrix(1 0 0 1 0 -4)">
	<stop  offset="0" style="stop-color:#1A1A1A"/>
	<stop  offset="1" style="stop-color:#595959"/>
</linearGradient>
<ellipse class="st15" cx="112.4" cy="157.2" rx="2.2" ry="2.7"/>
<linearGradient id="SVGID_9_" gradientUnits="userSpaceOnUse" x1="109.3756" y1="215.3102" x2="109.9556" y2="148.6003" gradientTransform="matrix(1 0 0 1 0 -4)">
	<stop  offset="0" style="stop-color:#1A1A1A"/>
	<stop  offset="1" style="stop-color:#595959"/>
</linearGradient>
<circle class="st16" cx="109.8" cy="162.5" r="1.8"/>
<linearGradient id="SVGID_10_" gradientUnits="userSpaceOnUse" x1="118.359" y1="215.3899" x2="118.939" y2="148.6699" gradientTransform="matrix(1 0 0 1 -1.094010e-02 -3.9997)">
	<stop  offset="0" style="stop-color:#1A1A1A"/>
	<stop  offset="1" style="stop-color:#595959"/>
</linearGradient>
<path class="st17" d="M117.8,155.9c0.4-1.2,1.1-1.9,1.7-1.8s0.7,1.3,0.4,2.4c-0.4,1.2-1.1,1.9-1.7,1.8S117.4,157,117.8,155.9z"/>
<linearGradient id="SVGID_11_" gradientUnits="userSpaceOnUse" x1="115.4804" y1="215.3703" x2="116.0604" y2="148.6503" gradientTransform="matrix(1 0 0 1 0 -4)">
	<stop  offset="0" style="stop-color:#1A1A1A"/>
	<stop  offset="1" style="stop-color:#595959"/>
</linearGradient>
<ellipse class="st18" cx="115.9" cy="163.1" rx="1.3" ry="1.1"/>
<linearGradient id="SVGID_12_" gradientUnits="userSpaceOnUse" x1="145.3772" y1="215.6297" x2="145.9572" y2="148.9097" gradientTransform="matrix(1 0 0 1 -1.125773e-02 -4.0023)">
	<stop  offset="0" style="stop-color:#1A1A1A"/>
	<stop  offset="1" style="stop-color:#595959"/>
</linearGradient>
<circle class="st19" cx="145.6" cy="184.7" r="1.8"/>
<linearGradient id="SVGID_13_" gradientUnits="userSpaceOnUse" x1="145.1856" y1="215.6196" x2="145.7656" y2="148.9095" gradientTransform="matrix(1 0 0 1 -1.613397e-02 -4.0047)">
	<stop  offset="0" style="stop-color:#1A1A1A"/>
	<stop  offset="1" style="stop-color:#595959"/>
</linearGradient>
<path class="st20" d="M144.4,179.2c0.2-1.2,0.8-2.1,1.4-2s0.9,1.1,0.7,2.3s-0.8,2.1-1.4,2S144.2,180.4,144.4,179.2z"/>
<linearGradient id="SVGID_14_" gradientUnits="userSpaceOnUse" x1="141.9406" y1="215.5997" x2="142.5206" y2="148.8797" gradientTransform="matrix(1 0 0 1 7.023260e-03 -3.993)">
	<stop  offset="0" style="stop-color:#1A1A1A"/>
	<stop  offset="1" style="stop-color:#595959"/>
</linearGradient>
<path class="st21" d="M141.1,182c0.3-0.5,1-0.7,1.6-0.4s0.9,1,0.6,1.5c-0.3,0.5-1,0.7-1.6,0.4C141.1,183.3,140.8,182.6,141.1,182z"
	/>
<polygon class="st22" points="242.3,153 2.1,153 21.8,114.5 226.1,114.5 "/>
<path class="st23" d="M202.6,72.1l7,18.3l14.9,18l14.7,7.3L209.6,80l-7-18.3l-24.4-20c0,0,1.6,5.9,3.6,13.3L202.6,72.1z"/>
<path class="st23" d="M39,90.4l7-18.3L66.8,55c2-7.3,3.6-13.3,3.6-13.3L46,61.7L39,80L9.4,115.7l14.7-7.3L39,90.4z"/>
<linearGradient id="SVGID_15_" gradientUnits="userSpaceOnUse" x1="5.9" y1="130.6" x2="239.2" y2="130.6" gradientTransform="matrix(1 0 0 1 0 -4)">
	<stop  offset="0" style="stop-color:#A3A4A4"/>
	<stop  offset="4.000000e-02" style="stop-color:#A7A8A8"/>
	<stop  offset="8.000000e-02" style="stop-color:#B2B2B2"/>
	<stop  offset="0.12" style="stop-color:#C5C5C5"/>
	<stop  offset="0.16" style="stop-color:#DFDEDE"/>
	<stop  offset="0.17" style="stop-color:#E7E6E6"/>
	<stop  offset="0.58" style="stop-color:#E5E4E4"/>
	<stop  offset="0.72" style="stop-color:#DEDEDE"/>
	<stop  offset="0.83" style="stop-color:#D3D2D2"/>
	<stop  offset="0.91" style="stop-color:#C2C2C2"/>
	<stop  offset="0.98" style="stop-color:#ACADAD"/>
	<stop  offset="1" style="stop-color:#A5A6A6"/>
</linearGradient>
<polygon class="st24" points="239.2,145.3 5.9,145.3 25.1,107.9 223.5,107.9 "/>
<polygon class="st23" points="25.1,118.2 223.5,118.2 234.8,145.3 239.2,145.3 223.5,107.9 25.1,107.9 5.9,145.3 11.2,145.3 "/>
<path class="st22" d="M202.6,229.8l-1.4,8.3c-0.2,1.5-1.5,2.7-3,2.6H72.8c-0.4,0-0.9-0.1-1.3-0.3v0.3H53.9c-1.7,0-3-0.9-3-2.1
	l-1.7-8.7l1.7,19.1c0,1.3,1.3,2.1,3,2.1h17.6v-0.3c0.4,0.2,0.8,0.3,1.3,0.3h125.5c1.5,0.1,2.8-1.1,3-2.6L202.6,229.8z"/>
</svg>
