<svg width="64" height="64" viewBox="0 0 64 64" fill="none" xmlns="http://www.w3.org/2000/svg">
<path d="M25.5133 10.4039C25.6116 9.75932 25.9441 9.09156 26.3256 8.56792C26.9102 7.7658 28.4327 6.35374 29.2569 5.82393C29.6547 5.56816 30.1478 5.32223 30.618 5.2478C30.482 5.45668 30.1174 5.62303 29.9099 5.76776C29.2689 6.21487 28.6708 7.0776 28.5695 7.86233L28.5274 7.89001C28.5059 8.81982 28.5373 9.759 28.5381 10.6901C28.539 11.7732 28.5118 12.8599 28.5283 13.9424C27.4603 13.9874 26.3557 14.0214 25.2903 13.9314C25.2332 13.045 25.2228 12.0647 25.3495 11.1826C25.3872 10.9197 25.4614 10.6642 25.5133 10.4039Z" fill="#A80232"/>
<path d="M25.5134 10.4039C25.6118 9.75932 25.9443 9.09156 26.3258 8.56792C26.9104 7.7658 28.4329 6.35375 29.2571 5.82393C29.6548 5.56816 30.1479 5.32223 30.6181 5.2478C30.4822 5.45668 30.1176 5.62303 29.9101 5.76776C29.2691 6.21487 28.671 7.0776 28.5697 7.86233L28.5275 7.89001C27.5438 8.06613 26.6203 8.82561 26.0639 9.6272C25.884 9.88636 25.7044 10.1659 25.5596 10.4461C25.5178 10.4181 25.5305 10.4346 25.5134 10.4039Z" fill="#DC3363"/>
<path d="M33.4838 5.24683C33.9717 5.36181 34.4161 5.52409 34.8457 5.78687C35.6097 6.25428 37.4894 8.07406 37.9606 8.8339C38.1969 9.21522 38.4107 9.6845 38.4905 10.128C38.8461 11.4342 38.913 12.5897 38.8403 13.9383C38.3164 14.0517 36.2086 14.0045 35.6162 13.928C35.5732 13.3841 35.6046 12.8163 35.6014 12.2695C35.5928 10.8195 35.6224 9.36744 35.6017 7.91794L35.5563 7.86745C35.5128 7.11408 34.8811 6.28044 34.3047 5.83691C34.1328 5.70468 33.5533 5.4057 33.4838 5.24683Z" fill="#A80232"/>
<path d="M33.4838 5.24683C33.9717 5.36181 34.4161 5.52409 34.8457 5.78687C35.6097 6.25428 37.4894 8.07406 37.9606 8.8339C38.1969 9.21522 38.4107 9.6845 38.4905 10.128C38.4809 10.1793 38.4909 10.1525 38.4522 10.205C38.3129 10.1339 38.0211 9.58894 37.9001 9.43131C37.3801 8.75435 36.473 8.03169 35.6017 7.91794L35.5563 7.86745C35.5128 7.11408 34.8811 6.28044 34.3047 5.83691C34.1328 5.70468 33.5533 5.4057 33.4838 5.24683Z" fill="#DC3363"/>
<path d="M30.618 5.24783C31.4646 4.93934 32.6406 4.89652 33.4838 5.24678C33.5533 5.40565 34.1328 5.70463 34.3047 5.83686C34.8811 6.28039 35.5128 7.11403 35.5563 7.8674L30.6909 7.86447C30.1026 7.86354 29.1087 7.78037 28.5696 7.86236C28.6709 7.07763 29.269 6.21489 29.91 5.76778C30.1175 5.62306 30.4821 5.4567 30.618 5.24783Z" fill="#64001C"/>
<path d="M39.1536 9.87033C42.0736 9.88056 44.7155 10.9793 46.7712 13.0302C48.367 14.6222 49.433 16.8153 49.807 19.0213C49.855 19.3046 49.9257 19.6048 49.9365 19.8905C49.9782 20.5819 50.1132 21.2723 50.1338 21.9646C50.1594 22.8257 50.1353 23.6904 50.1338 24.5519V28.9718C50.1338 29.9458 50.0991 30.7856 50.1338 31.7581C51.0023 31.9357 51.6457 32.5268 52.1363 33.2713C52.5766 33.9395 52.8108 35.0635 52.7173 35.8534C52.7099 36.71 52.7154 37.5717 52.7173 38.4294V45.9861C52.7146 47.4049 52.8008 48.8421 52.7173 50.258V52.752C52.7199 54.4067 52.784 55.9665 51.5251 57.2363C50.5802 58.1895 49.5631 58.4365 48.2609 58.4507C45.8848 58.4765 43.5051 58.4408 41.1287 58.4369L26.7635 58.4422L19.5156 58.4419C18.6482 58.4467 17.7807 58.4467 16.9133 58.442C16.4228 58.4399 15.899 58.4696 15.4135 58.4033C14.5287 58.2883 13.707 57.8877 13.0758 57.2636C11.7098 55.9248 11.7559 54.4201 11.7611 52.6446C11.7738 51.6674 11.7763 50.6902 11.7685 49.713C11.7338 48.7963 11.7575 47.8724 11.7596 46.9548L11.7568 42.7981V38.7138C11.7574 37.837 11.7414 36.9553 11.7856 36.0795C11.733 35.1321 11.8045 34.1964 12.3144 33.3712C12.8103 32.5688 13.6096 32.1144 14.5178 31.8933C14.5593 30.9122 14.5188 29.9158 14.5178 28.9331V24.2333C14.506 22.9183 14.3812 21.3 14.5748 20.0158C14.7124 17.377 15.9952 14.887 17.7959 12.984C19.3361 11.3563 21.6718 10.2712 23.8899 9.95594C24.3809 9.88609 24.8776 9.8768 25.3726 9.86351C26.4561 9.95405 27.5796 9.91984 28.6658 9.87457C30.1728 9.88621 31.6798 9.88609 33.187 9.87421C34.0773 9.8748 34.9866 9.91278 35.8745 9.85999C36.477 9.937 38.6207 9.98451 39.1536 9.87033Z" fill="#A80232"/>
<path d="M14.5178 31.8728V33.4639C13.6839 33.6104 13.0795 33.9847 12.5868 34.6948C12.4557 34.8837 12.3373 35.0892 12.2471 35.3011C12.1503 35.5287 11.9741 35.9179 11.8297 36.1172C11.6929 35.217 11.8434 34.0873 12.3479 33.2568C12.8384 32.4493 13.6194 32.0953 14.5178 31.8728Z" fill="#DC3363"/>
<path d="M11.768 50.1268C11.806 50.373 11.9342 50.581 12.0149 50.8142C12.3429 51.7625 12.752 52.3957 13.57 52.9931C14.1579 53.4226 14.814 53.53 15.5274 53.5764C16.3411 53.6292 17.1726 53.5872 17.9881 53.5848L22.0974 53.5871L34.5995 53.5855L44.8943 53.5919C45.5277 53.5849 46.1612 53.5837 46.7947 53.5884C47.6255 53.5968 48.4444 53.631 49.2675 53.4938C49.4906 53.4567 49.7738 53.4675 49.9675 53.3524C50.7712 53.0768 51.9294 52.2028 52.2892 51.4411C52.4365 51.1294 52.7171 50.6753 52.7171 50.6753L52.7081 53.1852C52.7107 54.8504 52.7437 56.4201 51.4985 57.698C50.5637 58.6573 49.1885 58.9058 47.9004 58.9202C45.5499 58.9461 43.1959 58.9102 40.8452 58.9063L26.6351 58.9116L19.4654 58.9113C18.6074 58.9161 17.7493 58.9161 16.8912 58.9114C16.406 58.9093 15.8878 58.9392 15.4076 58.8725C14.5324 58.7567 13.7195 58.3536 13.0951 57.7254C11.7439 56.3782 11.7536 54.8639 11.7587 53.077C11.7713 52.0937 11.7757 51.1102 11.768 50.1268Z" fill="#64001C"/>
<path d="M39.2898 9.87059C42.2328 9.88107 44.7709 10.9902 46.8427 13.0912C48.4511 14.7221 49.4786 16.972 49.8556 19.2319C49.904 19.5221 49.9528 19.9542 49.9637 20.2469C49.807 19.9439 49.7123 19.6256 49.5999 19.3052C49.4465 18.8654 49.2646 18.4362 49.0556 18.0203C47.7134 15.399 45.3516 13.5041 42.5976 12.56C41.7511 12.2782 40.9996 12.1129 40.1113 12.0348C38.956 11.9428 37.7743 11.9981 36.6153 12.0031L31.432 12.0046L27.207 12.0011C26.1622 11.9979 25.1081 11.9503 24.0695 12.0853C22.7787 12.2588 21.5264 12.6499 20.3651 13.2424C17.8894 14.475 15.8087 16.7571 14.921 19.3995C14.781 19.816 14.6804 20.2469 14.5314 20.66C14.5101 20.66 14.509 20.4314 14.5176 20.2639C14.6792 17.1097 15.9492 15.0099 17.764 13.0603C19.3163 11.3928 21.6704 10.2812 23.906 9.95828C24.4008 9.88673 24.9015 9.87721 25.4003 9.8636C26.4924 9.95635 27.6248 9.9213 28.7195 9.87492C30.2384 9.88685 31.7572 9.88673 33.2762 9.87456C34.1736 9.87516 35.09 9.91407 35.9849 9.85999C36.5921 9.93889 38.7527 9.98755 39.2898 9.87059Z" fill="#DC3363"/>
<path d="M50.1338 31.7581V33.3491C50.9676 33.4956 51.4676 33.87 51.9603 34.5801C52.0913 34.7689 52.2098 34.9745 52.3 35.1863C52.3968 35.414 52.573 35.8032 52.7173 36.0024C52.8542 35.1022 52.5852 33.9995 52.0808 33.1691C51.5902 32.3615 51.0322 31.9805 50.1338 31.7581Z" fill="#DC3363"/>
<path d="M30.6053 36.4774C28.1108 36.509 25.6126 36.4843 23.1175 36.4847L21.0604 36.4856C20.5915 36.4865 20.0931 36.5212 19.6295 36.4424C19.4339 36.4091 19.2535 36.2701 19.1133 36.1348C18.7398 35.7746 18.6389 35.2939 18.6415 34.7936C18.6441 34.2954 18.7498 33.7975 19.1182 33.4355C19.3298 33.2277 19.5894 33.1127 19.8824 33.0885C20.2943 33.0545 20.7174 33.0745 21.1308 33.0746L23.3844 33.0765L30.3243 33.0773L39.6718 33.0787L42.6429 33.0765C43.1711 33.0753 43.7113 33.0516 44.2379 33.0779C44.57 33.0945 44.8774 33.2307 45.0979 33.4835C45.481 33.9228 45.5264 34.5379 45.4762 35.0948C45.4387 35.5101 45.3035 35.9054 44.9785 36.1825C44.7701 36.36 44.5623 36.4133 44.299 36.4459C43.3912 36.5587 42.1672 36.485 41.2226 36.485L36.38 36.484C35.4501 36.4837 34.5121 36.4588 33.5833 36.4957L33.5986 40.9715C33.5982 41.6754 33.6482 42.4186 33.5808 43.116C34.5615 43.1377 35.5473 43.1112 36.5287 43.1131C36.0268 43.6931 35.5669 44.331 35.0995 44.94C34.6095 45.5782 34.1005 46.2014 33.6102 46.8394C33.1006 47.5024 32.6094 48.181 32.0803 48.8286L27.6264 43.0937C28.5347 43.1744 29.6892 43.1117 30.6212 43.1143C30.5838 42.3318 30.604 41.5395 30.6054 40.7561C30.6132 39.3299 30.6132 37.9037 30.6053 36.4774Z" fill="#DC3363"/>
<path d="M30.6052 36.4774C31.5843 36.4612 32.5717 36.4667 33.5508 36.4885L33.5561 41.1024C33.5555 41.6436 33.4873 42.6387 33.5807 43.116C34.5614 43.1377 35.5472 43.1112 36.5286 43.1131C36.0268 43.6931 35.5669 44.331 35.0995 44.94C34.6095 45.5781 34.1005 46.2014 33.6101 46.8393C33.1005 47.5024 32.6094 48.181 32.0802 48.8285L27.6263 43.0937C28.5346 43.1744 29.6891 43.1117 30.6211 43.1143C30.5837 42.3317 30.604 41.5395 30.6054 40.7561C30.6131 39.3298 30.6131 37.9037 30.6052 36.4774Z" fill="#FEEEF2"/>
<path d="M18.6283 49.2231C18.7384 49.5578 18.8478 49.9176 19.0838 50.1871C19.2258 50.3492 19.4705 50.5353 19.6916 50.5485C20.957 50.6236 22.2448 50.5778 23.5138 50.5787L30.3575 50.579L39.1918 50.5788C40.7988 50.5795 42.4193 50.623 44.0248 50.5699C44.2784 50.5615 44.4935 50.5592 44.7227 50.4388C45.2028 50.1864 45.3739 49.6636 45.5146 49.1763C45.5049 49.7197 45.502 50.2645 45.4606 50.8064C45.3955 51.2297 45.2037 51.6291 44.8552 51.8891C44.5908 52.0864 44.3191 52.1143 44.0024 52.125C43.3976 52.1455 42.7879 52.1204 42.1825 52.1211C40.7971 52.1278 39.4116 52.1263 38.0263 52.1168L27.7432 52.1182L22.2242 52.1248C21.5526 52.1248 20.3769 52.1921 19.7493 52.0956C19.4193 52.0448 19.1488 51.8619 18.9593 51.5877C18.6157 51.0907 18.6291 50.4966 18.6147 49.9187C18.6089 49.6909 18.5862 49.448 18.6283 49.2231Z" fill="#64001C"/>
<path d="M28.1496 26.318C27.6739 26.318 27.2693 26.23 26.9358 26.0538C26.6022 25.8777 26.3452 25.6269 26.1648 25.3013C25.9898 24.9704 25.9023 24.5808 25.9023 24.1325C25.9023 23.6736 25.9789 23.2786 26.132 22.9477C26.2851 22.6168 26.5038 22.3633 26.7881 22.1872C27.0779 22.0057 27.4251 21.915 27.8298 21.915C27.9993 21.915 28.1496 21.931 28.2809 21.963C28.4176 21.9951 28.5542 22.0404 28.6909 22.0991V20.1938L29.913 20.0017V26.0779C29.7708 26.1206 29.5986 26.1606 29.3963 26.1979C29.194 26.2353 28.9835 26.2647 28.7648 26.286C28.5515 26.3074 28.3465 26.318 28.1496 26.318ZM28.1578 25.3013C28.2672 25.3013 28.3683 25.2987 28.4613 25.2933C28.5542 25.2827 28.6308 25.272 28.6909 25.2613V23.0918C28.6144 23.0438 28.5132 23.0038 28.3875 22.9717C28.2672 22.9397 28.1442 22.9237 28.0184 22.9237C27.8708 22.9237 27.7423 22.9477 27.6329 22.9958C27.529 23.0438 27.4388 23.1158 27.3623 23.2119C27.2912 23.308 27.2365 23.4281 27.1982 23.5721C27.1654 23.7162 27.149 23.8844 27.149 24.0765C27.149 24.322 27.1873 24.5381 27.2638 24.7249C27.3404 24.9064 27.4525 25.0478 27.6001 25.1492C27.7532 25.2506 27.9391 25.3013 28.1578 25.3013Z" fill="white"/>
<path d="M32.7222 26.326C32.2028 26.326 31.7736 26.23 31.4346 26.0378C31.101 25.8457 30.8522 25.5842 30.6882 25.2533C30.5242 24.9224 30.4422 24.5515 30.4422 24.1405C30.4422 23.6442 30.5406 23.2306 30.7374 22.8997C30.9397 22.5635 31.1967 22.3126 31.5084 22.1472C31.8255 21.9764 32.1591 21.891 32.509 21.891C32.9191 21.891 33.2718 21.9737 33.567 22.1392C33.8623 22.2993 34.0892 22.5394 34.2478 22.8597C34.4118 23.1799 34.4938 23.5775 34.4938 24.0525C34.4938 24.1219 34.4911 24.1992 34.4856 24.2846C34.4802 24.3647 34.4747 24.4367 34.4692 24.5008H31.697C31.7244 24.7463 31.8419 24.9411 32.0497 25.0852C32.2575 25.2293 32.5363 25.3013 32.8863 25.3013C33.1105 25.3013 33.3292 25.2827 33.5424 25.2453C33.7611 25.2026 33.9388 25.1519 34.0755 25.0932L34.2396 26.0619C34.1083 26.1259 33.8978 26.1846 33.608 26.238C33.3237 26.2967 33.0284 26.326 32.7222 26.326ZM31.697 23.6842H33.3128C33.3073 23.5508 33.2772 23.4227 33.2226 23.3C33.1679 23.1772 33.0831 23.0758 32.9683 22.9958C32.8589 22.9157 32.7113 22.8757 32.5254 22.8757C32.3395 22.8757 32.1891 22.9157 32.0743 22.9958C31.9649 23.0705 31.8802 23.1692 31.82 23.292C31.7599 23.4147 31.7189 23.5455 31.697 23.6842Z" fill="white"/>
<path d="M36.7902 26.318C36.5934 26.318 36.3856 26.3074 36.1669 26.286C35.9536 26.2647 35.7458 26.2353 35.5435 26.1979C35.3467 26.1606 35.1744 26.1206 35.0268 26.0779V20.1938L36.2489 20.0017V22.0991C36.3856 22.0404 36.5277 21.9951 36.6754 21.963C36.823 21.931 36.9816 21.915 37.1511 21.915C37.5612 21.915 37.9056 22.0057 38.1845 22.1872C38.4634 22.3687 38.6739 22.6248 38.816 22.9557C38.9637 23.2813 39.0375 23.6655 39.0375 24.1085C39.0375 24.5568 38.9473 24.9464 38.7668 25.2773C38.5918 25.6082 38.3376 25.8644 38.0041 26.0458C37.6705 26.2273 37.2659 26.318 36.7902 26.318ZM36.782 25.3013C37.0062 25.3013 37.1921 25.2506 37.3397 25.1492C37.4873 25.0478 37.5994 24.9064 37.676 24.7249C37.7525 24.5381 37.7908 24.322 37.7908 24.0765C37.7908 23.8844 37.7717 23.7162 37.7334 23.5721C37.7006 23.4281 37.6459 23.308 37.5694 23.2119C37.4983 23.1158 37.4081 23.0438 37.2987 22.9958C37.1948 22.9477 37.0691 22.9237 36.9214 22.9237C36.7957 22.9237 36.6699 22.9397 36.5441 22.9717C36.4238 23.0038 36.3254 23.0438 36.2489 23.0918V25.2613C36.309 25.272 36.3856 25.2827 36.4785 25.2933C36.5715 25.2987 36.6726 25.3013 36.782 25.3013Z" fill="white"/>
</svg>
