<?xml version="1.0" encoding="UTF-8" standalone="no"?>
<svg
   id="Layer_1"
   data-name="Layer 1"
   viewBox="0 0 64 64"
   version="1.1"
   sodipodi:docname="pardus-package-installer.svg"
   inkscape:version="1.3 (0e150ed6c4, 2023-07-21)"
   xmlns:inkscape="http://www.inkscape.org/namespaces/inkscape"
   xmlns:sodipodi="http://sodipodi.sourceforge.net/DTD/sodipodi-0.dtd"
   xmlns="http://www.w3.org/2000/svg"
   xmlns:svg="http://www.w3.org/2000/svg"
   xmlns:rdf="http://www.w3.org/1999/02/22-rdf-syntax-ns#"
   xmlns:cc="http://creativecommons.org/ns#"
   xmlns:dc="http://purl.org/dc/elements/1.1/">
  <metadata
     id="metadata35">
    <rdf:RDF>
      <cc:Work
         rdf:about="">
        <dc:format>image/svg+xml</dc:format>
        <dc:type
           rdf:resource="http://purl.org/dc/dcmitype/StillImage" />
        <dc:title />
      </cc:Work>
    </rdf:RDF>
  </metadata>
  <sodipodi:namedview
     pagecolor="#ffffff"
     bordercolor="#666666"
     borderopacity="1"
     objecttolerance="10"
     gridtolerance="10"
     guidetolerance="10"
     inkscape:pageopacity="0"
     inkscape:pageshadow="2"
     inkscape:window-width="1920"
     inkscape:window-height="1127"
     id="namedview33"
     showgrid="false"
     inkscape:zoom="11.484375"
     inkscape:cx="41.186394"
     inkscape:cy="26.078911"
     inkscape:window-x="0"
     inkscape:window-y="0"
     inkscape:window-maximized="1"
     inkscape:current-layer="Layer_1"
     inkscape:showpageshadow="2"
     inkscape:pagecheckerboard="0"
     inkscape:deskcolor="#d1d1d1" />
  <defs
     id="defs4">
    <style
       id="style2">.cls-1{fill:#72544e;}.cls-2{fill:#927266;}.cls-3{fill:#82635a;}.cls-4{fill:#ff901d;}.cls-5{fill:#ffb125;}</style>
  </defs>
  <g
     id="g2"
     transform="matrix(1.2149395,0,0,1.2149395,-6.8780657,-6.8780651)">
    <g
       id="g1">
      <path
         class="st0"
         d="M 55.2,9.55 H 39.5 V 9.45 H 24.9 l -0.5,0.1 H 8.7 c -1.5,0 -2.7,1.2 -2.7,2.7 v 10.8 c 0,1.5 1.2,2.69999 2.7,2.69999 H 9 v 26.000005 c 0,1.5 1.2,2.8 2.8,2.8 h 40.4 c 1.5,0 2.8,-1.3 2.8,-2.8 V 25.64999 h 0.3 c 1.4,0 2.7,-1.2 2.7,-2.7 V 12.15 c -0.1,-1.4 -1.3,-2.6 -2.8,-2.6 z"
         id="path309"
         style="opacity:0.3;fill:#ffffff;enable-background:new" />
      <g
         id="g311"
         transform="translate(-291.89999,93.749998)">
        <path
           class="st20"
           d="m 344.1,-40.8 h -40.4 c -0.7,0 -1.2,-0.6 -1.2,-1.2 v -27.6 h 42.9 V -42 c 0,0.6 -0.6,1.2 -1.3,1.2 z"
           id="path310"
           style="fill:#edefef" />
        <path
           class="st2"
           d="m 344.1,-39.8 h -40.4 c -1.3,0 -2.3,-1 -2.3,-2.3 v -28.5 h 45 V -42 c -0.1,1.2 -1,2.2 -2.3,2.2 z m -40.7,-28.8 v 26.5 c 0,0.1 0.1,0.2 0.2,0.2 H 344 c 0.1,0 0.2,-0.1 0.2,-0.2 v -26.5 z"
           id="path311"
           style="fill:#2f3536" />
      </g>
      <polygon
         class="st25"
         points="324.4,-47.1 317.8,-58.5 331,-58.5 "
         id="polygon311"
         transform="translate(-291.89999,93.749998)"
         style="fill:#33b5d9;fill-opacity:1" />
      <g
         id="g313"
         transform="translate(-291.89999,93.749998)">
        <path
           class="st20"
           d="m 347.1,-69.7 h -46.5 c -0.6,0 -1.1,-0.5 -1.1,-1.1 v -10.8 c 0,-0.6 0.5,-1.1 1.1,-1.1 h 46.5 c 0.6,0 1.1,0.5 1.1,1.1 v 10.8 c 0.1,0.6 -0.5,1.1 -1.1,1.1 z"
           id="path312"
           style="fill:#edefef" />
        <path
           class="st2"
           d="m 347.1,-68.6 h -46.5 c -1.2,0 -2.2,-1 -2.2,-2.2 v -10.8 c 0,-1.2 1,-2.2 2.2,-2.2 h 46.5 c 1.2,0 2.2,1 2.2,2.2 v 10.8 c 0,1.2 -1,2.2 -2.2,2.2 z m -46.4,-13.1 c -0.1,0 -0.1,0 0,0 l -0.1,10.9 c 0,0.1 0,0.1 0.1,0.1 h 46.5 c 0.1,0 0.1,0 0.1,-0.1 v -10.8 c 0,-0.1 0,-0.1 -0.1,-0.1 0,0 -46.5,0 -46.5,0 z"
           id="path313"
           style="fill:#2f3536" />
      </g>
      <rect
         x="24.899992"
         y="9.9499893"
         class="st25"
         width="14.1"
         height="13.2"
         id="rect313"
         style="fill:#33b5d9;fill-opacity:1" />
      <g
         id="g317"
         transform="translate(-291.89999,93.749998)"
         style="fill:#33b5d9;fill-opacity:1">
        <g
           class="st28"
           id="g316"
           style="fill:#33b5d9;fill-opacity:1;enable-background:new">
          <path
             class="st25"
             d="m 320.3,-60.3 c -0.1,0 -0.3,0.1 -0.5,0.1 -0.2,0 -0.3,0.1 -0.5,0.1 -0.2,0 -0.4,0 -0.6,0.1 -0.2,0 -0.4,0 -0.6,0 -0.4,0 -0.8,-0.1 -1.1,-0.2 -0.3,-0.1 -0.6,-0.3 -0.8,-0.5 -0.2,-0.2 -0.4,-0.5 -0.5,-0.8 -0.1,-0.3 -0.2,-0.7 -0.2,-1.1 0,-0.4 0.1,-0.8 0.2,-1.1 0.1,-0.3 0.3,-0.6 0.5,-0.9 0.2,-0.2 0.4,-0.4 0.7,-0.5 0.3,-0.1 0.6,-0.2 1,-0.2 0.2,0 0.4,0 0.5,0.1 0.2,0 0.3,0.1 0.5,0.2 v -2.3 l 1.5,-0.2 v 7.2 z m -3.3,-2.5 c 0,0.5 0.1,0.8 0.3,1.1 0.2,0.3 0.5,0.4 0.9,0.4 0.1,0 0.3,0 0.4,0 0.1,0 0.2,0 0.3,0 V -64 c -0.1,-0.1 -0.2,-0.1 -0.4,-0.1 -0.1,0 -0.3,-0.1 -0.4,-0.1 -0.7,0 -1.1,0.5 -1.1,1.4 z"
             id="path314"
             style="fill:#33b5d9;fill-opacity:1" />
          <path
             class="st25"
             d="m 321.5,-62.7 c 0,-0.5 0.1,-0.9 0.2,-1.2 0.1,-0.3 0.3,-0.6 0.6,-0.9 0.3,-0.3 0.5,-0.4 0.8,-0.5 0.3,-0.1 0.6,-0.2 0.9,-0.2 0.7,0 1.3,0.2 1.7,0.7 0.4,0.4 0.6,1.1 0.6,2 0,0.1 0,0.2 0,0.3 0,0.1 0,0.2 0,0.3 H 323 c 0,0.3 0.2,0.5 0.4,0.7 0.2,0.2 0.6,0.3 1,0.3 0.3,0 0.5,0 0.8,-0.1 0.3,0 0.5,-0.1 0.6,-0.2 l 0.2,1.2 c -0.1,0 -0.2,0.1 -0.3,0.1 -0.1,0 -0.3,0.1 -0.4,0.1 -0.2,0 -0.3,0.1 -0.5,0.1 -0.2,0 -0.4,0 -0.6,0 -0.5,0 -0.9,-0.1 -1.2,-0.2 -0.3,-0.1 -0.6,-0.3 -0.9,-0.6 -0.2,-0.2 -0.4,-0.5 -0.5,-0.9 -0.1,-0.4 -0.1,-0.6 -0.1,-1 z m 3.4,-0.6 c 0,-0.1 0,-0.2 -0.1,-0.4 0,-0.1 -0.1,-0.2 -0.2,-0.3 -0.1,-0.1 -0.2,-0.2 -0.3,-0.2 -0.1,-0.1 -0.3,-0.1 -0.4,-0.1 -0.2,0 -0.3,0 -0.4,0.1 -0.1,0.1 -0.2,0.1 -0.3,0.2 -0.1,0.1 -0.1,0.2 -0.2,0.3 0,0.1 -0.1,0.2 -0.1,0.4 z"
             id="path315"
             style="fill:#33b5d9;fill-opacity:1" />
          <path
             class="st25"
             d="m 332.3,-62.8 c 0,0.4 -0.1,0.8 -0.2,1.1 -0.1,0.3 -0.3,0.6 -0.5,0.9 -0.2,0.2 -0.5,0.4 -0.8,0.5 -0.3,0.1 -0.7,0.2 -1.1,0.2 -0.2,0 -0.4,0 -0.6,0 -0.2,0 -0.4,0 -0.6,-0.1 -0.2,0 -0.4,-0.1 -0.5,-0.1 -0.2,0 -0.3,-0.1 -0.5,-0.1 v -7.2 l 1.5,-0.2 v 2.6 c 0.2,-0.1 0.3,-0.1 0.5,-0.2 0.2,0 0.4,-0.1 0.6,-0.1 0.4,0 0.7,0.1 1,0.2 0.3,0.1 0.5,0.3 0.7,0.5 0.2,0.2 0.3,0.5 0.4,0.9 0,0.4 0.1,0.7 0.1,1.1 z m -1.5,0 c 0,-0.9 -0.3,-1.4 -1,-1.4 -0.2,0 -0.3,0 -0.4,0.1 -0.1,0 -0.3,0.1 -0.4,0.1 v 2.7 c 0.1,0 0.2,0 0.3,0 0.1,0 0.2,0 0.4,0 0.4,0 0.7,-0.1 0.9,-0.4 0.1,-0.3 0.2,-0.6 0.2,-1.1 z"
             id="path316"
             style="fill:#33b5d9;fill-opacity:1" />
        </g>
      </g>
    </g>
  </g>
</svg>
