<?xml version="1.0" encoding="UTF-8" standalone="no"?>
<svg
   xmlns:dc="http://purl.org/dc/elements/1.1/"
   xmlns:cc="http://creativecommons.org/ns#"
   xmlns:rdf="http://www.w3.org/1999/02/22-rdf-syntax-ns#"
   xmlns:svg="http://www.w3.org/2000/svg"
   xmlns="http://www.w3.org/2000/svg"
   xmlns:sodipodi="http://sodipodi.sourceforge.net/DTD/sodipodi-0.dtd"
   xmlns:inkscape="http://www.inkscape.org/namespaces/inkscape"
   id="Layer_1"
   data-name="Layer 1"
   viewBox="0 0 64 64"
   version="1.1"
   sodipodi:docname="deb.svg"
   inkscape:version="1.0.2 (e86c870879, 2021-01-15)">
  <metadata
     id="metadata35">
    <rdf:RDF>
      <cc:Work
         rdf:about="">
        <dc:format>image/svg+xml</dc:format>
        <dc:type
           rdf:resource="http://purl.org/dc/dcmitype/StillImage" />
        <dc:title></dc:title>
      </cc:Work>
    </rdf:RDF>
  </metadata>
  <sodipodi:namedview
     pagecolor="#ffffff"
     bordercolor="#666666"
     borderopacity="1"
     objecttolerance="10"
     gridtolerance="10"
     guidetolerance="10"
     inkscape:pageopacity="0"
     inkscape:pageshadow="2"
     inkscape:window-width="1920"
     inkscape:window-height="1128"
     id="namedview33"
     showgrid="false"
     inkscape:zoom="2.8710938"
     inkscape:cx="-13.034226"
     inkscape:cy="57.350247"
     inkscape:window-x="0"
     inkscape:window-y="0"
     inkscape:window-maximized="1"
     inkscape:current-layer="Layer_1" />
  <defs
     id="defs4">
    <style
       id="style2">.cls-1{fill:#72544e;}.cls-2{fill:#927266;}.cls-3{fill:#82635a;}.cls-4{fill:#ff901d;}.cls-5{fill:#ffb125;}</style>
  </defs>
  <g
     id="g101"
     transform="translate(-68.42644,-0.5314122)">
    <path
       class="cls-1"
       d="M 124.22644,2.7314124 H 76.626441 a 7.4,7.4 0 0 0 -6.8,4.7 l -0.2,0.4 a 17.7,17.7 0 0 0 -1.2,6.3999996 v 36.6 a 11.5,11.5 0 0 0 11.5,11.5 h 40.999999 a 11.5,11.5 0 0 0 11.5,-11.5 v -36.1 a 20.2,20.2 0 0 0 -1.4,-7.2999996 v 0 a 7.4,7.4 0 0 0 -6.8,-4.7 z"
       id="path42" />
    <path
       class="cls-2"
       d="m 132.42644,23.631412 v -8.9 a 20.2,20.2 0 0 0 -1.4,-7.2999996 l -0.2,-0.6 a 6.4,6.4 0 0 0 -5.9,-4.1 H 75.926441 a 6.4,6.4 0 0 0 -5.9,4.1 l -0.4,1 a 17.7,17.7 0 0 0 -1.2,6.3999996 v 9.4 z"
       id="path44" />
    <path
       class="cls-3"
       d="m 100.42644,62.331412 v 0 a 32,32 0 0 1 -31.999999,-32 v -16.4 a 3.1,3.1 0 0 1 3,-3 h 57.399999 a 3.6,3.6 0 0 1 3.6,3.6 v 15.8 a 32,32 0 0 1 -32,32 z"
       id="path46" />
    <polygon
       class="cls-4"
       points="37.8,2.2 39.7,10.4 32.4,10.4 32.4,2.2 "
       id="polygon48"
       transform="translate(68.426441,0.53141239)" />
    <polygon
       class="cls-5"
       points="27.1,2.2 25.2,10.4 32.5,10.4 32.5,2.2 "
       id="polygon50"
       transform="translate(68.426441,0.53141239)" />
    <rect
       class="cls-4"
       x="100.92644"
       y="10.931412"
       width="7.3000002"
       height="8.6899996"
       id="rect52" />
    <rect
       class="cls-5"
       x="93.626442"
       y="10.931412"
       width="7.3000002"
       height="8.6899996"
       id="rect62" />
    <g
       id="g71"
       transform="translate(-1.3947654)">
      <path
         class="cls-4"
         d="m 97.426441,33.631412 -0.5,0.2 h -2 l -1.4,-0.2 a 4.1,4.1 0 0 1 -1.1,-0.7 3.3,3.3 0 0 1 -0.6,-1 3.2,3.2 0 0 1 -0.2,-1.4 3.2,3.2 0 0 1 0.2,-1.4 3.1,3.1 0 0 1 0.5,-1 l 0.9,-0.7 1.2,-0.2 h 0.7 l 0.6,0.2 v -2.6 l 1.7,-0.3 z m -4,-3 a 2.1,2.1 0 0 0 0.4,1.4 1.3,1.3 0 0 0 1.1,0.5 h 0.8 v -3.3 l -0.5,-0.2 h -0.5 c -0.9,-0.1 -1.3,0.5 -1.3,1.6 z"
         id="path56" />
      <path
         class="cls-4"
         d="m 98.826441,30.731412 a 3.2,3.2 0 0 1 0.3,-1.4 3,3 0 0 1 0.7,-1.1 1.8,1.8 0 0 1 0.899999,-0.6 2.3,2.3 0 0 1 1.1,-0.2 2.7,2.7 0 0 1 2.2,0.8 3.3,3.3 0 0 1 0.7,2.4 v 0.7 h -4 a 1.4,1.4 0 0 0 0.5,0.9 2.1,2.1 0 0 0 1.2,0.3 h 1 l 0.7,-0.2 0.3,1.4 -0.4,0.2 h -1.8 l -1.5,-0.2 a 4.1,4.1 0 0 1 -1.099999,-0.7 l -0.6,-1.1 a 5.1,5.1 0 0 1 -0.2,-1.2 z m 4.199999,-0.6 a 0.9,0.9 0 0 0 -0.1,-0.5 0.8,0.8 0 0 0 -0.2,-0.4 l -0.3,-0.3 h -1 l -0.4,0.3 a 0.8,0.8 0 0 0 -0.2,0.4 0.7,0.7 0 0 0 -0.1,0.5 z"
         id="path58" />
      <path
         class="cls-4"
         d="m 112.02644,30.731412 a 6.8,6.8 0 0 1 -0.2,1.4 3.6,3.6 0 0 1 -0.7,1 2.6,2.6 0 0 1 -1,0.7 l -1.4,0.2 h -2 l -0.6,-0.2 v -9 l 1.8,-0.3 v 3.2 l 0.6,-0.2 h 0.7 l 1.2,0.2 a 2.2,2.2 0 0 1 0.9,0.7 3.1,3.1 0 0 1 0.5,1 5.9,5.9 0 0 1 0.2,1.3 z m -1.8,-0.1 c 0,-1.1 -0.5,-1.7 -1.3,-1.7 h -0.5 l -0.5,0.2 v 3.2 h 0.8 a 1.3,1.3 0 0 0 1.1,-0.5 2.9,2.9 0 0 0 0.4,-1.2 z"
         id="path60" />
    </g>
    <polygon
       class="cls-4"
       points="32.5,58.6 39.7,51.9 39.7,51.9 47.4,44.9 39.7,44.9 39.7,38.5 32.5,38.5 "
       id="polygon64"
       transform="translate(68.426441,0.53141239)" />
    <polygon
       class="cls-5"
       points="25.2,51.9 32.5,58.6 32.5,38.5 25.2,38.5 25.2,44.9 17.5,44.9 "
       id="polygon66"
       transform="translate(68.426441,0.53141239)" />
  </g>
</svg>
